<svg width="139" height="33" viewBox="0 0 139 33" fill="none" xmlns="http://www.w3.org/2000/svg">
<path d="M9.438 13.704C9.438 14.76 8.844 15.332 7.678 15.332H5.544V12.098H7.678C8.844 12.098 9.438 12.736 9.438 13.704ZM1.232 8.49V24H5.544V18.28H6.006L9.086 24H13.904L10.406 17.95C12.716 17.246 13.816 15.486 13.816 13.462C13.816 10.69 11.88 8.49 8.03 8.49H1.232ZM15.0729 17.818C15.0729 21.756 17.4049 24.154 20.3309 24.154C22.0689 24.154 23.3229 23.384 23.9609 22.284V24H28.2729V11.658H23.9609V13.374C23.3229 12.274 22.0909 11.504 20.3309 11.504C17.4049 11.504 15.0729 13.88 15.0729 17.818ZM23.9609 17.818C23.9609 19.49 22.9269 20.392 21.7169 20.392C20.4849 20.392 19.4729 19.468 19.4729 17.818C19.4729 16.146 20.4849 15.266 21.7169 15.266C22.9269 15.266 23.9609 16.168 23.9609 17.818ZM29.696 11.658L33.942 24H39.31L43.556 11.658H38.958L36.648 19.93L34.294 11.658H29.696ZM45.0172 24H49.3292V11.658H45.0172V24ZM47.1952 10.514C48.7132 10.514 49.7032 9.546 49.7032 8.314C49.7032 7.06 48.7132 6.07 47.1952 6.07C45.6552 6.07 44.6652 7.06 44.6652 8.314C44.6652 9.546 45.6552 10.514 47.1952 10.514ZM56.497 24V8.16H58.884L64.362 19.38L69.84 8.16H72.227V24H69.752V13.847L64.89 24H63.834L58.983 13.847V24H56.497ZM80.7183 24.33C79.5157 24.33 78.4597 24.0697 77.5503 23.549C76.641 23.0283 75.9297 22.306 75.4163 21.382C74.9103 20.458 74.6573 19.3947 74.6573 18.192C74.6573 16.894 74.9067 15.7683 75.4053 14.815C75.904 13.8543 76.597 13.11 77.4843 12.582C78.3717 12.054 79.3983 11.79 80.5643 11.79C81.7963 11.79 82.8413 12.0797 83.6993 12.659C84.5647 13.231 85.2063 14.0413 85.6243 15.09C86.0423 16.1387 86.2 17.3743 86.0973 18.797H83.4683V17.829C83.461 16.5383 83.2337 15.596 82.7863 15.002C82.339 14.408 81.635 14.111 80.6743 14.111C79.589 14.111 78.7823 14.4483 78.2543 15.123C77.7263 15.7903 77.4623 16.7693 77.4623 18.06C77.4623 19.2627 77.7263 20.194 78.2543 20.854C78.7823 21.514 79.5523 21.844 80.5643 21.844C81.217 21.844 81.778 21.701 82.2473 21.415C82.724 21.1217 83.0907 20.7 83.3473 20.15L85.9653 20.942C85.5107 22.0127 84.8067 22.845 83.8533 23.439C82.9073 24.033 81.8623 24.33 80.7183 24.33ZM76.6263 18.797V16.795H84.7993V18.797H76.6263ZM93.3147 24.33C92.2221 24.33 91.2687 24.055 90.4547 23.505C89.6407 22.955 89.0101 22.207 88.5627 21.261C88.1154 20.315 87.8917 19.248 87.8917 18.06C87.8917 16.8573 88.1154 15.7867 88.5627 14.848C89.0174 13.902 89.6591 13.1577 90.4877 12.615C91.3164 12.065 92.2917 11.79 93.4137 11.79C94.5431 11.79 95.4891 12.065 96.2517 12.615C97.0217 13.1577 97.6047 13.902 98.0007 14.848C98.3967 15.794 98.5947 16.8647 98.5947 18.06C98.5947 19.2407 98.3967 20.3077 98.0007 21.261C97.6047 22.207 97.0144 22.955 96.2297 23.505C95.4451 24.055 94.4734 24.33 93.3147 24.33ZM93.7217 21.954C94.4331 21.954 95.0051 21.7927 95.4377 21.47C95.8777 21.14 96.1967 20.6817 96.3947 20.095C96.6001 19.5083 96.7027 18.83 96.7027 18.06C96.7027 17.2827 96.6001 16.6043 96.3947 16.025C96.1967 15.4383 95.8851 14.9837 95.4597 14.661C95.0344 14.331 94.4844 14.166 93.8097 14.166C93.0984 14.166 92.5117 14.342 92.0497 14.694C91.5877 15.0387 91.2467 15.508 91.0267 16.102C90.8067 16.6887 90.6967 17.3413 90.6967 18.06C90.6967 18.786 90.8031 19.446 91.0157 20.04C91.2357 20.6267 91.5694 21.0923 92.0167 21.437C92.4641 21.7817 93.0324 21.954 93.7217 21.954ZM96.7027 24V15.662H96.3727V8.16H99.0457V24H96.7027ZM102.35 10.316V7.885H105.001V10.316H102.35ZM102.35 24V12.12H105.001V24H102.35ZM113.455 24.33C112.23 24.33 111.185 24.0587 110.32 23.516C109.455 22.966 108.791 22.218 108.329 21.272C107.874 20.326 107.643 19.2553 107.636 18.06C107.643 16.8427 107.882 15.7647 108.351 14.826C108.828 13.88 109.502 13.1393 110.375 12.604C111.248 12.0613 112.285 11.79 113.488 11.79C114.837 11.79 115.978 12.131 116.909 12.813C117.848 13.4877 118.46 14.4117 118.746 15.585L116.106 16.3C115.901 15.662 115.56 15.167 115.083 14.815C114.606 14.4557 114.064 14.276 113.455 14.276C112.766 14.276 112.197 14.441 111.75 14.771C111.303 15.0937 110.973 15.541 110.76 16.113C110.547 16.685 110.441 17.334 110.441 18.06C110.441 19.1893 110.694 20.1023 111.2 20.799C111.706 21.4957 112.458 21.844 113.455 21.844C114.159 21.844 114.713 21.6827 115.116 21.36C115.527 21.0373 115.835 20.5717 116.04 19.963L118.746 20.568C118.379 21.778 117.738 22.7093 116.821 23.362C115.904 24.0073 114.782 24.33 113.455 24.33ZM124.079 24.33C123.221 24.33 122.495 24.1687 121.901 23.846C121.307 23.516 120.856 23.0797 120.548 22.537C120.247 21.9943 120.097 21.3967 120.097 20.744C120.097 20.172 120.192 19.6587 120.383 19.204C120.573 18.742 120.867 18.346 121.263 18.016C121.659 17.6787 122.172 17.4037 122.803 17.191C123.279 17.037 123.837 16.8977 124.475 16.773C125.12 16.6483 125.817 16.5347 126.565 16.432C127.32 16.322 128.108 16.2047 128.93 16.08L127.984 16.619C127.991 15.7977 127.808 15.1927 127.434 14.804C127.06 14.4153 126.429 14.221 125.542 14.221C125.006 14.221 124.489 14.3457 123.991 14.595C123.492 14.8443 123.144 15.2733 122.946 15.882L120.526 15.123C120.819 14.1183 121.376 13.3117 122.198 12.703C123.026 12.0943 124.141 11.79 125.542 11.79C126.598 11.79 127.525 11.9623 128.325 12.307C129.131 12.6517 129.729 13.2163 130.118 14.001C130.33 14.419 130.459 14.848 130.503 15.288C130.547 15.7207 130.569 16.1937 130.569 16.707V24H128.248V21.426L128.633 21.844C128.097 22.702 127.47 23.3327 126.752 23.736C126.04 24.132 125.149 24.33 124.079 24.33ZM124.607 22.218C125.208 22.218 125.721 22.1117 126.147 21.899C126.572 21.6863 126.909 21.426 127.159 21.118C127.415 20.81 127.588 20.5203 127.676 20.249C127.815 19.9117 127.892 19.5267 127.907 19.094C127.929 18.654 127.94 18.2983 127.94 18.027L128.754 18.269C127.954 18.3937 127.269 18.5037 126.697 18.599C126.125 18.6943 125.633 18.786 125.223 18.874C124.812 18.9547 124.449 19.0463 124.134 19.149C123.826 19.259 123.565 19.3873 123.353 19.534C123.14 19.6807 122.975 19.8493 122.858 20.04C122.748 20.2307 122.693 20.4543 122.693 20.711C122.693 21.0043 122.766 21.2647 122.913 21.492C123.059 21.712 123.272 21.888 123.551 22.02C123.837 22.152 124.189 22.218 124.607 22.218ZM133.653 24V7.83H136.304V24H133.653Z" fill="white"/>
<line x1="56" y1="4.5" x2="139" y2="4.5" stroke="white"/>
<line x1="56" y1="28.5" x2="139" y2="28.5" stroke="white"/>
</svg>
