<svg id="Layer_1" data-name="Layer 1" xmlns="http://www.w3.org/2000/svg" xmlns:xlink="http://www.w3.org/1999/xlink" viewBox="0 0 1080 1080"><defs><style>.cls-1,.cls-3{fill:none;}.cls-2{fill:url(#linear-gradient);}.cls-3{stroke:#00a2c1;stroke-linecap:round;stroke-linejoin:round;stroke-width:3px;}.cls-4{fill:#00a2c1;}.cls-5{fill:#aadee7;}.cls-6{fill:#beb9d0;}.cls-7{fill:#eceaf0;}.cls-14,.cls-8{fill:#fba919;}.cls-15,.cls-8{opacity:0.47;}.cls-13,.cls-9{fill:#fec986;}.cls-9{opacity:0.64;}.cls-10{fill:#f15a50;}.cls-11{fill:#391312;}.cls-12{fill:#7b6476;}.cls-13{opacity:0.36;}.cls-15,.cls-25{fill:#fff;}.cls-16{fill:url(#linear-gradient-2);}.cls-17{fill:#9795b8;}.cls-18{fill:url(#linear-gradient-3);}.cls-19{fill:#f79221;}.cls-20{fill:url(#linear-gradient-4);}.cls-21{fill:#f59197;}.cls-22{fill:#00262d;}.cls-23{fill:#644457;}.cls-24{fill:#42243b;}.cls-26{fill:#e0daed;}.cls-27{fill:#0092ab;}.cls-28{fill:#f59aa7;}.cls-29{fill:url(#linear-gradient-5);}.cls-30{fill:#80d0da;}.cls-31{fill:#a8a6c3;}.cls-32{fill:#fcfdf8;}.cls-33{fill:url(#linear-gradient-6);}.cls-34{fill:#eec6b4;}.cls-35{fill:#8a3724;}.cls-36{fill:url(#linear-gradient-7);}.cls-37{clip-path:url(#clip-path);}.cls-38{fill:#f9fafb;}</style><linearGradient id="linear-gradient" x1="569.55" y1="424.84" x2="670.07" y2="604.04" gradientTransform="matrix(-1, 0, 0, 1, 889.37, 0)" gradientUnits="userSpaceOnUse"><stop offset="0" stop-color="#c4e4f8"/><stop offset="0.1" stop-color="#c4e4f8" stop-opacity="0.98"/><stop offset="0.22" stop-color="#c4e4f8" stop-opacity="0.91"/><stop offset="0.37" stop-color="#c4e4f8" stop-opacity="0.81"/><stop offset="0.52" stop-color="#c4e4f8" stop-opacity="0.66"/><stop offset="0.68" stop-color="#c4e4f8" stop-opacity="0.47"/><stop offset="0.85" stop-color="#c4e4f8" stop-opacity="0.24"/><stop offset="1" stop-color="#c4e4f8" stop-opacity="0"/></linearGradient><linearGradient id="linear-gradient-2" x1="677.26" y1="565.82" x2="707.75" y2="613.68" gradientTransform="matrix(-1, 0, 0, 1, 1300.42, 0)" xlink:href="#linear-gradient"/><linearGradient id="linear-gradient-3" x1="464.5" y1="687.71" x2="493.09" y2="732.6" gradientTransform="matrix(-1, 0, 0, 1, 1300.42, 0)" xlink:href="#linear-gradient"/><linearGradient id="linear-gradient-4" x1="669.5" y1="686.79" x2="751.07" y2="780.54" gradientTransform="matrix(-0.28, -0.96, -0.96, 0.28, 1501.95, 1226.09)" xlink:href="#linear-gradient"/><linearGradient id="linear-gradient-5" x1="471.55" y1="830.5" x2="498.58" y2="878.69" xlink:href="#linear-gradient"/><linearGradient id="linear-gradient-6" x1="944.49" y1="853.03" x2="1026.06" y2="946.78" gradientTransform="matrix(-0.28, -0.96, -0.96, 0.28, 1463.76, 1609.55)" xlink:href="#linear-gradient"/><linearGradient id="linear-gradient-7" x1="56.25" y1="868.95" x2="79.5" y2="910.4" xlink:href="#linear-gradient"/><clipPath id="clip-path"><path id="SVGID" class="cls-1" d="M880.32,796.66c0,12.24-12.91,22.11-28.79,22.05s-28.73-10-28.71-22.26c0-2.93-90.9-53.5-91.26-56.37-7.08-55.8,59.83-80.06,118.64-86.15,58.56-6.06,137.84,68.68,107.07,114.64C956.31,770,880.32,794.88,880.32,796.66Z"/></clipPath></defs><polygon class="cls-2" points="425.14 470.61 173.63 612.85 104.51 575.17 356.02 432.93 425.14 470.61"/><line class="cls-3" x1="252.78" y1="479.23" x2="252.78" y2="569.63"/><line class="cls-3" x1="183.66" y1="441.55" x2="183.66" y2="531.95"/><line class="cls-3" x1="425.22" y1="382.74" x2="425.22" y2="473.15"/><line class="cls-3" x1="356.1" y1="345.06" x2="356.1" y2="435.47"/><polygon class="cls-4" points="169.2 471.16 253.65 519.22 438.69 412.52 438.69 406.27 354.38 365.33 169.2 464.91 169.2 471.16"/><polygon class="cls-5" points="169.2 464.91 253.65 512.97 438.69 406.27 354.38 359.08 169.2 464.91"/><polygon class="cls-4" points="325.61 382.17 287.89 402.61 274.94 395.41 311.75 374.78 325.61 382.17"/><polygon class="cls-4" points="287.89 402.61 287.89 430.96 274.94 423.4 274.94 395.41 287.89 402.61"/><polygon class="cls-6" points="274.94 401.93 274.94 414.16 287.89 421.36 287.89 409.13 274.94 401.93"/><polygon class="cls-5" points="325.61 382.17 287.89 402.61 287.89 430.96 325.61 409.54 325.61 382.17"/><polygon class="cls-7" points="287.89 409.13 287.89 421.34 325.61 400.9 325.61 388.69 287.89 409.13"/><polygon class="cls-4" points="347.01 393.99 309.29 414.43 296.34 407.24 333.15 386.6 347.01 393.99"/><polygon class="cls-4" points="309.29 414.43 309.29 442.78 296.34 435.22 296.34 407.24 309.29 414.43"/><polygon class="cls-6" points="296.34 413.75 296.34 425.99 309.29 433.18 309.29 420.95 296.34 413.75"/><polygon class="cls-5" points="347.01 393.99 309.29 414.43 309.29 442.78 347.01 421.36 347.01 393.99"/><polygon class="cls-7" points="309.29 420.96 309.29 433.16 347.01 412.72 347.01 400.52 309.29 420.96"/><polygon class="cls-4" points="368.41 405.82 330.69 426.26 317.74 419.06 354.55 398.42 368.41 405.82"/><polygon class="cls-4" points="330.69 426.26 330.69 454.61 317.74 447.05 317.74 419.06 330.69 426.26"/><polygon class="cls-6" points="317.74 425.58 317.74 437.81 330.69 445.01 330.69 432.77 317.74 425.58"/><polygon class="cls-5" points="368.41 405.82 330.69 426.26 330.69 454.61 368.41 433.19 368.41 405.82"/><polygon class="cls-7" points="330.69 432.78 330.69 444.98 368.41 424.54 368.41 412.34 330.69 432.78"/><path class="cls-8" d="M361.58,393A16.06,16.06,0,0,1,347,393c-4-2.32-4-6.08,0-8.41a16.12,16.12,0,0,1,14.57,0C365.6,386.94,365.6,390.7,361.58,393Z"/><path class="cls-9" d="M347,362.17a16.12,16.12,0,0,1,14.57,0c2,1.17,3,2.69,3,4.21h0v22.44c0,1.52-1,3-3,4.2A16.06,16.06,0,0,1,347,393c-2-1.16-3-2.68-3-4.2V366.38h0C344,364.86,345,363.34,347,362.17Z"/><path class="cls-10" d="M347,387.08a16.12,16.12,0,0,0,14.57,0c2-1.16,3-2.69,3-4.21h0v-14h0c-.13,1.41-1.11,2.81-3,3.89a16.06,16.06,0,0,1-14.57,0c-1.87-1.08-2.86-2.47-3-3.88h0v14C344,384.39,345,385.92,347,387.08Z"/><path class="cls-11" d="M361.58,363.25a16.12,16.12,0,0,1-14.57,0c-4-2.32-4-6.09,0-8.41a16.06,16.06,0,0,1,14.57,0C365.6,357.16,365.6,360.93,361.58,363.25Z"/><rect class="cls-11" x="343.99" y="353.45" width="20.6" height="5.59"/><path class="cls-12" d="M361.58,357.66a16.12,16.12,0,0,1-14.57,0c-4-2.33-4-6.09,0-8.41a16.06,16.06,0,0,1,14.57,0C365.6,351.57,365.6,355.33,361.58,357.66Z"/><path class="cls-13" d="M358.16,355.32a8.48,8.48,0,0,1-7.72,0c-2.14-1.23-2.14-3.22,0-4.45a8.54,8.54,0,0,1,7.72,0C360.29,352.1,360.29,354.09,358.16,355.32Z"/><path class="cls-14" d="M394.38,410c-5.38,3.1-14.1,3.1-19.47,0s-5.38-8.14,0-11.24,14.09-3.1,19.47,0S399.75,406.89,394.38,410Z"/><path class="cls-9" d="M374.27,368.28c1.6-2.34,4.64-5.13,10.37-5.13s8.77,2.8,10.37,5.13c.87,1.26,3.4,4.2,3.4,6.1v30c0,2-1.34,4.07-4,5.62-5.38,3.1-14.1,3.1-19.47,0-2.69-1.55-4-3.59-4-5.62v-30C370.88,372.48,373.51,369.4,374.27,368.28Z"/><path class="cls-6" d="M374.91,402c5.37,3.11,14.09,3.11,19.47,0,2.69-1.55,4-3.58,4-5.62h0V377.66h0c-.17,1.89-1.49,3.76-4,5.2-5.38,3.11-14.1,3.11-19.47,0-2.5-1.44-3.82-3.3-4-5.19h0v18.74C370.88,398.46,372.22,400.49,374.91,402Z"/><path class="cls-11" d="M391.34,367.28a14.79,14.79,0,0,1-13.4,0c-3.7-2.13-3.7-5.6,0-7.73a14.79,14.79,0,0,1,13.4,0C395,361.68,395,365.15,391.34,367.28Z"/><rect class="cls-11" x="375.17" y="358.27" width="18.95" height="5.14"/><path class="cls-12" d="M391.34,362.14a14.79,14.79,0,0,1-13.4,0c-3.7-2.14-3.7-5.6,0-7.74a14.85,14.85,0,0,1,13.4,0C395,356.54,395,360,391.34,362.14Z"/><path class="cls-13" d="M388.19,360a7.8,7.8,0,0,1-7.1,0c-2-1.13-2-3,0-4.09a7.8,7.8,0,0,1,7.1,0C390.15,357,390.15,358.86,388.19,360Z"/><path class="cls-5" d="M272.37,453.23c-5.38,3.1-14.09,3.1-19.47,0s-5.38-8.14,0-11.25,14.09-3.1,19.47,0S277.75,450.12,272.37,453.23Z"/><path class="cls-15" d="M276.4,417.62H248.87v30c0,2,1.34,4.07,4,5.63,5.38,3.1,14.09,3.1,19.47,0,2.69-1.56,4-3.59,4-5.62h0Z"/><path class="cls-4" d="M252.9,445.28c5.38,3.1,14.09,3.1,19.47,0,2.69-1.56,4-3.59,4-5.62h0V420.9h0c-.16,1.9-1.48,3.76-4,5.21-5.38,3.1-14.09,3.1-19.47,0-2.5-1.44-3.82-3.3-4-5.19h0v18.74C248.87,441.69,250.21,443.73,252.9,445.28Z"/><path class="cls-4" d="M272.37,423.24c-5.38,3.1-14.09,3.1-19.47,0s-5.38-8.14,0-11.24,14.09-3.11,19.47,0S277.75,420.13,272.37,423.24Z"/><path class="cls-11" d="M272.37,413.44c-5.38,3.1-14.09,3.1-19.47,0s-5.38-8.14,0-11.25,14.09-3.1,19.47,0S277.75,410.33,272.37,413.44Z"/><rect class="cls-11" x="248.87" y="400.34" width="27.53" height="7.47"/><path class="cls-12" d="M272.37,406c-5.38,3.11-14.09,3.11-19.47,0s-5.38-8.13,0-11.24,14.09-3.1,19.47,0S277.75,402.86,272.37,406Z"/><path class="cls-13" d="M267.79,402.84a11.36,11.36,0,0,1-10.31,0c-2.85-1.64-2.85-4.31,0-5.95a11.36,11.36,0,0,1,10.31,0C270.64,398.53,270.64,401.2,267.79,402.84Z"/><path class="cls-15" d="M302.72,470.78c-5.38,3.1-14.1,3.1-19.47,0s-5.38-8.14,0-11.24,14.09-3.11,19.47,0S308.09,467.67,302.72,470.78Z"/><path class="cls-15" d="M306.75,435.17H279.21v30c0,2,1.35,4.07,4,5.62,5.37,3.1,14.09,3.1,19.47,0,2.68-1.55,4-3.59,4-5.62h0Z"/><path class="cls-4" d="M283.25,462.83c5.37,3.1,14.09,3.1,19.47,0,2.68-1.55,4-3.59,4-5.62h0V438.45h0c-.17,1.9-1.49,3.76-4,5.21-5.38,3.1-14.1,3.1-19.47,0-2.5-1.44-3.82-3.3-4-5.19h0v18.74C279.21,459.24,280.56,461.28,283.25,462.83Z"/><path class="cls-4" d="M302.72,440.79c-5.38,3.1-14.1,3.1-19.47,0s-5.38-8.14,0-11.24,14.09-3.1,19.47,0S308.09,437.69,302.72,440.79Z"/><path class="cls-11" d="M302.72,431c-5.38,3.1-14.1,3.1-19.47,0s-5.38-8.14,0-11.24,14.09-3.11,19.47,0S308.09,427.88,302.72,431Z"/><rect class="cls-11" x="279.21" y="417.89" width="27.53" height="7.47"/><path class="cls-12" d="M302.72,423.51c-5.38,3.11-14.1,3.11-19.47,0s-5.38-8.13,0-11.24,14.09-3.1,19.47,0S308.09,420.41,302.72,423.51Z"/><path class="cls-13" d="M298.14,420.4a11.44,11.44,0,0,1-10.32,0c-2.85-1.65-2.85-4.32,0-6a11.38,11.38,0,0,1,10.32,0C301,416.08,301,418.75,298.14,420.4Z"/><path class="cls-5" d="M233.5,474.61c-5.38,3.11-14.1,3.11-19.47,0s-5.38-8.13,0-11.24,14.09-3.1,19.47,0S238.87,471.51,233.5,474.61Z"/><path class="cls-4" d="M214,466.67c5.37,3.1,14.09,3.1,19.47,0,2.69-1.56,4-3.59,4-5.63h0V442.29h0c-.17,1.89-1.49,3.76-4,5.21-5.38,3.1-14.1,3.1-19.47,0-2.5-1.45-3.82-3.3-4-5.19h0v18.74C210,463.08,211.34,465.11,214,466.67Z"/><path class="cls-15" d="M214,433.39c5.37-3.11,14.09-3.11,19.47,0,2.69,1.55,4,3.58,4,5.62h0v30c0,2-1.34,4.07-4,5.62-5.38,3.11-14.1,3.11-19.47,0-2.69-1.55-4-3.58-4-5.62V439C210,437,211.34,434.94,214,433.39Z"/><path class="cls-11" d="M231.33,435.77a16.73,16.73,0,0,1-15.13,0c-4.18-2.41-4.18-6.32,0-8.73a16.67,16.67,0,0,1,15.13,0C235.51,429.45,235.51,433.36,231.33,435.77Z"/><rect class="cls-11" x="213.06" y="425.6" width="21.4" height="5.81"/><path class="cls-12" d="M231.33,430a16.67,16.67,0,0,1-15.13,0c-4.18-2.41-4.18-6.32,0-8.73a16.73,16.73,0,0,1,15.13,0C235.51,423.64,235.51,427.55,231.33,430Z"/><path class="cls-13" d="M227.77,427.54a8.86,8.86,0,0,1-8,0c-2.21-1.28-2.21-3.35,0-4.63a8.86,8.86,0,0,1,8,0C230,424.19,230,426.26,227.77,427.54Z"/><line class="cls-3" x1="252.78" y1="412.15" x2="252.78" y2="502.55"/><line class="cls-3" x1="183.66" y1="374.46" x2="183.66" y2="464.87"/><line class="cls-3" x1="425.22" y1="315.66" x2="425.22" y2="406.07"/><line class="cls-3" x1="356.1" y1="277.98" x2="356.1" y2="368.38"/><polygon class="cls-4" points="169.2 382.73 253.65 430.79 438.69 324.09 438.69 317.84 354.38 276.9 169.2 376.48 169.2 382.73"/><polygon class="cls-5" points="169.2 376.48 253.65 424.54 438.69 317.84 354.38 270.65 169.2 376.48"/><polygon class="cls-4" points="325.61 295.58 287.89 316.02 274.94 308.82 311.75 288.19 325.61 295.58"/><polygon class="cls-4" points="287.89 316.02 287.89 344.37 274.94 336.81 274.94 308.82 287.89 316.02"/><polygon class="cls-6" points="274.94 315.34 274.94 327.57 287.89 334.77 287.89 322.54 274.94 315.34"/><polygon class="cls-5" points="325.61 295.58 287.89 316.02 287.89 344.37 325.61 322.95 325.61 295.58"/><polygon class="cls-7" points="287.89 322.54 287.89 334.75 325.61 314.31 325.61 302.1 287.89 322.54"/><polygon class="cls-4" points="347.01 307.4 309.29 327.84 296.34 320.65 333.15 300.01 347.01 307.4"/><polygon class="cls-4" points="309.29 327.84 309.29 356.19 296.34 348.63 296.34 320.65 309.29 327.84"/><polygon class="cls-6" points="296.34 327.16 296.34 339.4 309.29 346.59 309.29 334.36 296.34 327.16"/><polygon class="cls-5" points="347.01 307.4 309.29 327.84 309.29 356.19 347.01 334.77 347.01 307.4"/><polygon class="cls-7" points="309.29 334.37 309.29 346.57 347.01 326.13 347.01 313.93 309.29 334.37"/><polygon class="cls-4" points="368.41 319.23 330.69 339.67 317.74 332.47 354.55 311.83 368.41 319.23"/><polygon class="cls-4" points="330.69 339.67 330.69 368.02 317.74 360.46 317.74 332.47 330.69 339.67"/><polygon class="cls-6" points="317.74 338.99 317.74 351.22 330.69 358.42 330.69 346.18 317.74 338.99"/><polygon class="cls-5" points="368.41 319.23 330.69 339.67 330.69 368.02 368.41 346.6 368.41 319.23"/><polygon class="cls-7" points="330.69 346.19 330.69 358.39 368.41 337.95 368.41 325.75 330.69 346.19"/><path class="cls-8" d="M361.58,306.44a16.12,16.12,0,0,1-14.57,0c-4-2.33-4-6.09,0-8.42a16.12,16.12,0,0,1,14.57,0C365.6,300.35,365.6,304.11,361.58,306.44Z"/><path class="cls-9" d="M347,275.58a16.12,16.12,0,0,1,14.57,0c2,1.17,3,2.69,3,4.21h0v22.44c0,1.52-1,3-3,4.21a16.12,16.12,0,0,1-14.57,0c-2-1.17-3-2.69-3-4.21V279.79h0C344,278.27,345,276.75,347,275.58Z"/><path class="cls-10" d="M347,300.49a16.12,16.12,0,0,0,14.57,0c2-1.16,3-2.69,3-4.21h0v-14h0c-.13,1.42-1.11,2.81-3,3.89a16.06,16.06,0,0,1-14.57,0c-1.87-1.08-2.86-2.47-3-3.88h0v14C344,297.81,345,299.33,347,300.49Z"/><path class="cls-11" d="M361.58,276.66a16.12,16.12,0,0,1-14.57,0c-4-2.32-4-6.09,0-8.41a16.12,16.12,0,0,1,14.57,0C365.6,270.57,365.6,274.34,361.58,276.66Z"/><rect class="cls-11" x="343.99" y="266.86" width="20.6" height="5.59"/><path class="cls-12" d="M361.58,271.07a16.12,16.12,0,0,1-14.57,0c-4-2.32-4-6.09,0-8.41a16.06,16.06,0,0,1,14.57,0C365.6,265,365.6,268.75,361.58,271.07Z"/><ellipse class="cls-13" cx="354.3" cy="266.51" rx="5.46" ry="3.15"/><path class="cls-14" d="M394.38,323.4c-5.38,3.11-14.1,3.11-19.47,0s-5.38-8.14,0-11.24,14.09-3.1,19.47,0S399.75,320.3,394.38,323.4Z"/><path class="cls-9" d="M374.27,281.69c1.6-2.34,4.64-5.13,10.37-5.13s8.77,2.8,10.37,5.13c.87,1.26,3.4,4.2,3.4,6.1v30c0,2-1.34,4.07-4,5.62-5.38,3.11-14.1,3.11-19.47,0-2.69-1.55-4-3.59-4-5.62v-30C370.88,285.89,373.51,282.81,374.27,281.69Z"/><path class="cls-6" d="M374.91,315.45c5.37,3.11,14.09,3.11,19.47,0,2.69-1.55,4-3.58,4-5.62h0V291.07h0c-.17,1.89-1.49,3.76-4,5.2-5.38,3.11-14.1,3.11-19.47,0-2.5-1.44-3.82-3.3-4-5.19h0v18.74C370.88,311.87,372.22,313.9,374.91,315.45Z"/><path class="cls-11" d="M391.34,280.69a14.79,14.79,0,0,1-13.4,0c-3.7-2.13-3.7-5.6,0-7.73a14.79,14.79,0,0,1,13.4,0C395,275.09,395,278.56,391.34,280.69Z"/><rect class="cls-11" x="375.17" y="271.68" width="18.95" height="5.14"/><path class="cls-12" d="M391.34,275.55a14.79,14.79,0,0,1-13.4,0c-3.7-2.14-3.7-5.6,0-7.73a14.79,14.79,0,0,1,13.4,0C395,270,395,273.41,391.34,275.55Z"/><path class="cls-13" d="M388.19,273.41a7.86,7.86,0,0,1-7.1,0c-2-1.14-2-3,0-4.1a7.8,7.8,0,0,1,7.1,0C390.15,270.44,390.15,272.27,388.19,273.41Z"/><path class="cls-15" d="M272.37,366.64c-5.38,3.1-14.09,3.1-19.47,0s-5.38-8.14,0-11.24,14.09-3.11,19.47,0S277.75,363.53,272.37,366.64Z"/><path class="cls-15" d="M276.4,331H248.87v30c0,2,1.34,4.06,4,5.62,5.38,3.1,14.09,3.1,19.47,0,2.69-1.56,4-3.59,4-5.62h0Z"/><path class="cls-4" d="M252.9,358.69c5.38,3.1,14.09,3.1,19.47,0,2.69-1.55,4-3.59,4-5.62h0V334.31h0c-.16,1.9-1.48,3.76-4,5.21-5.38,3.1-14.09,3.1-19.47,0-2.5-1.44-3.82-3.3-4-5.19h0v18.74C248.87,355.1,250.21,357.14,252.9,358.69Z"/><path class="cls-4" d="M272.37,336.65c-5.38,3.1-14.09,3.1-19.47,0s-5.38-8.14,0-11.24,14.09-3.11,19.47,0S277.75,333.55,272.37,336.65Z"/><path class="cls-11" d="M272.37,326.85c-5.38,3.1-14.09,3.1-19.47,0s-5.38-8.14,0-11.25,14.09-3.1,19.47,0S277.75,323.74,272.37,326.85Z"/><rect class="cls-11" x="248.87" y="313.75" width="27.53" height="7.47"/><path class="cls-12" d="M272.37,319.37c-5.38,3.11-14.09,3.11-19.47,0s-5.38-8.13,0-11.24,14.09-3.1,19.47,0S277.75,316.27,272.37,319.37Z"/><path class="cls-13" d="M267.79,316.26a11.42,11.42,0,0,1-10.31,0c-2.85-1.65-2.85-4.32,0-6a11.36,11.36,0,0,1,10.31,0C270.64,311.94,270.64,314.61,267.79,316.26Z"/><path class="cls-15" d="M302.72,384.19c-5.38,3.1-14.1,3.1-19.47,0s-5.38-8.14,0-11.24,14.09-3.11,19.47,0S308.09,381.08,302.72,384.19Z"/><path class="cls-15" d="M306.75,348.58H279.21v30c0,2,1.35,4.07,4,5.62,5.37,3.1,14.09,3.1,19.47,0,2.68-1.55,4-3.59,4-5.62h0Z"/><path class="cls-4" d="M283.25,376.24c5.37,3.1,14.09,3.1,19.47,0,2.68-1.55,4-3.59,4-5.62h0V351.86h0c-.17,1.9-1.49,3.76-4,5.21-5.38,3.11-14.1,3.11-19.47,0-2.5-1.44-3.82-3.3-4-5.19h0v18.74C279.21,372.66,280.56,374.69,283.25,376.24Z"/><path class="cls-4" d="M302.72,354.2c-5.38,3.11-14.1,3.11-19.47,0s-5.38-8.14,0-11.24,14.09-3.1,19.47,0S308.09,351.1,302.72,354.2Z"/><path class="cls-11" d="M302.72,344.4c-5.38,3.1-14.1,3.1-19.47,0s-5.38-8.14,0-11.24,14.09-3.11,19.47,0S308.09,341.29,302.72,344.4Z"/><rect class="cls-11" x="279.21" y="331.3" width="27.53" height="7.47"/><path class="cls-12" d="M302.72,336.93c-5.38,3.1-14.1,3.1-19.47,0s-5.38-8.13,0-11.24,14.09-3.1,19.47,0S308.09,333.82,302.72,336.93Z"/><path class="cls-13" d="M298.14,333.81a11.44,11.44,0,0,1-10.32,0c-2.85-1.65-2.85-4.31,0-6a11.44,11.44,0,0,1,10.32,0C301,329.5,301,332.16,298.14,333.81Z"/><path class="cls-5" d="M233.5,388c-5.38,3.11-14.1,3.11-19.47,0s-5.38-8.13,0-11.24,14.09-3.1,19.47,0S238.87,384.92,233.5,388Z"/><path class="cls-4" d="M214,380.08c5.37,3.1,14.09,3.1,19.47,0,2.69-1.56,4-3.59,4-5.62h0V355.7h0c-.17,1.9-1.49,3.76-4,5.21-5.38,3.1-14.1,3.1-19.47,0-2.5-1.44-3.82-3.3-4-5.19h0v18.74C210,376.49,211.34,378.52,214,380.08Z"/><path class="cls-15" d="M214,346.8c5.37-3.11,14.09-3.11,19.47,0,2.69,1.55,4,3.58,4,5.62h0v30c0,2-1.34,4.07-4,5.62-5.38,3.11-14.1,3.11-19.47,0-2.69-1.55-4-3.58-4-5.62v-30C210,350.38,211.34,348.35,214,346.8Z"/><path class="cls-11" d="M231.33,349.18a16.73,16.73,0,0,1-15.13,0c-4.18-2.41-4.18-6.32,0-8.73a16.67,16.67,0,0,1,15.13,0C235.51,342.86,235.51,346.77,231.33,349.18Z"/><rect class="cls-11" x="213.06" y="339.01" width="21.4" height="5.81"/><path class="cls-12" d="M231.33,343.38a16.73,16.73,0,0,1-15.13,0c-4.18-2.42-4.18-6.33,0-8.74a16.73,16.73,0,0,1,15.13,0C235.51,337.05,235.51,341,231.33,343.38Z"/><path class="cls-13" d="M227.77,341a8.86,8.86,0,0,1-8,0c-2.21-1.28-2.21-3.35,0-4.63a8.86,8.86,0,0,1,8,0C230,337.6,230,339.67,227.77,341Z"/><polygon class="cls-16" points="742.27 638.63 675.96 677.14 464.54 555.04 531.52 518.89 742.27 638.63"/><polygon class="cls-17" points="742.27 238.59 742.27 638.63 531.52 518.89 531.52 118.86 742.27 238.59"/><polygon class="cls-6" points="742.27 638.63 755.68 631.14 755.68 231.71 742.27 238.59 742.27 638.63"/><polygon class="cls-7" points="755.68 231.71 545.85 111.78 531.52 118.86 742.27 238.59 755.68 231.71"/><polygon class="cls-7" points="742.27 309.94 681.19 344.5 470.75 224.29 531.83 189.73 742.27 309.94"/><polygon class="cls-17" points="681.19 344.5 681.19 360.57 742.27 326.01 742.27 309.94 681.19 344.5"/><polygon class="cls-6" points="681.19 360.57 470.75 238.88 470.75 224.29 681.19 344.5 681.19 360.57"/><polygon class="cls-4" points="569.91 202.35 607.62 222.79 620.58 215.6 583.77 194.96 569.91 202.35"/><polygon class="cls-4" points="607.62 222.79 607.62 251.15 620.58 243.59 620.58 215.6 607.62 222.79"/><polygon class="cls-6" points="620.58 222.11 620.58 234.35 607.62 241.55 607.62 229.31 620.58 222.11"/><polygon class="cls-5" points="569.91 202.35 607.62 222.79 607.62 251.15 569.91 229.72 569.91 202.35"/><polygon class="cls-7" points="607.62 229.32 607.62 241.52 569.91 221.08 569.91 208.88 607.62 229.32"/><polygon class="cls-4" points="548.51 214.18 586.22 234.62 599.18 227.42 562.37 206.79 548.51 214.18"/><polygon class="cls-4" points="586.22 234.62 586.22 262.97 599.18 255.41 599.18 227.42 586.22 234.62"/><polygon class="cls-6" points="599.18 233.94 599.18 246.17 586.22 253.37 586.22 241.13 599.18 233.94"/><polygon class="cls-5" points="548.51 214.18 586.22 234.62 586.22 262.97 548.51 241.55 548.51 214.18"/><polygon class="cls-7" points="586.22 241.14 586.22 253.35 548.51 232.91 548.51 220.7 586.22 241.14"/><polygon class="cls-4" points="527.11 226 564.82 246.44 577.77 239.25 540.97 218.61 527.11 226"/><polygon class="cls-4" points="564.82 246.44 564.82 274.79 577.77 267.23 577.77 239.25 564.82 246.44"/><polygon class="cls-6" points="577.77 245.76 577.77 258 564.82 265.19 564.82 252.96 577.77 245.76"/><polygon class="cls-5" points="527.11 226 564.82 246.44 564.82 274.79 527.11 253.37 527.11 226"/><polygon class="cls-7" points="564.82 252.97 564.82 265.17 527.11 244.73 527.11 232.53 564.82 252.97"/><path class="cls-8" d="M533.93,213.21a16.12,16.12,0,0,0,14.57,0c4-2.32,4-6.09,0-8.41a16.12,16.12,0,0,0-14.57,0C529.91,207.12,529.91,210.89,533.93,213.21Z"/><path class="cls-9" d="M548.5,182.36a16.12,16.12,0,0,0-14.57,0c-2,1.16-3,2.68-3,4.21h0V209c0,1.53,1,3.05,3,4.21a16.12,16.12,0,0,0,14.57,0c2-1.16,3-2.68,3-4.21V186.57h0C551.52,185,550.51,183.52,548.5,182.36Z"/><path class="cls-10" d="M548.5,207.26a16.06,16.06,0,0,1-14.57,0c-2-1.16-3-2.68-3-4.2h0V189h0c.12,1.42,1.11,2.82,3,3.9a16.12,16.12,0,0,0,14.57,0c1.87-1.08,2.86-2.47,3-3.88h0v14C551.52,204.58,550.51,206.1,548.5,207.26Z"/><path class="cls-11" d="M533.93,183.44a16.12,16.12,0,0,0,14.57,0c4-2.33,4-6.09,0-8.42a16.12,16.12,0,0,0-14.57,0C529.91,177.35,529.91,181.11,533.93,183.44Z"/><rect class="cls-11" x="530.92" y="173.64" width="20.6" height="5.59" transform="translate(1082.43 352.87) rotate(180)"/><path class="cls-12" d="M533.93,177.84a16.06,16.06,0,0,0,14.57,0c4-2.32,4-6.09,0-8.41a16.12,16.12,0,0,0-14.57,0C529.91,171.75,529.91,175.52,533.93,177.84Z"/><path class="cls-13" d="M537.36,175.51a8.54,8.54,0,0,0,7.72,0c2.13-1.23,2.13-3.23,0-4.46a8.54,8.54,0,0,0-7.72,0C535.22,172.28,535.22,174.28,537.36,175.51Z"/><path class="cls-8" d="M685.87,302.15a16.12,16.12,0,0,0,14.57,0c4-2.32,4-6.09,0-8.41a16.12,16.12,0,0,0-14.57,0C681.85,296.06,681.85,299.83,685.87,302.15Z"/><path class="cls-9" d="M700.44,271.3a16.12,16.12,0,0,0-14.57,0c-2,1.16-3,2.68-3,4.21h0v22.43c0,1.53,1,3.05,3,4.21a16.12,16.12,0,0,0,14.57,0c2-1.16,3-2.68,3-4.21V275.51h0C703.46,274,702.45,272.46,700.44,271.3Z"/><path class="cls-10" d="M700.44,296.2a16.06,16.06,0,0,1-14.57,0c-2-1.16-3-2.68-3-4.2h0V278h0c.13,1.42,1.11,2.82,3,3.9a16.12,16.12,0,0,0,14.57,0c1.87-1.08,2.86-2.47,3-3.89h0v14C703.45,293.52,702.45,295,700.44,296.2Z"/><path class="cls-11" d="M685.87,272.37a16.06,16.06,0,0,0,14.57,0c4-2.32,4-6.08,0-8.41a16.12,16.12,0,0,0-14.57,0C681.85,266.29,681.85,270.05,685.87,272.37Z"/><rect class="cls-11" x="682.85" y="262.58" width="20.6" height="5.59" transform="translate(1386.31 530.75) rotate(180)"/><path class="cls-12" d="M685.87,266.78a16.06,16.06,0,0,0,14.57,0c4-2.32,4-6.09,0-8.41a16.12,16.12,0,0,0-14.57,0C681.85,260.69,681.85,264.46,685.87,266.78Z"/><path class="cls-13" d="M689.29,264.45a8.54,8.54,0,0,0,7.72,0c2.14-1.23,2.14-3.23,0-4.46a8.54,8.54,0,0,0-7.72,0C687.16,261.22,687.16,263.22,689.29,264.45Z"/><path class="cls-14" d="M501.14,230.18c5.37,3.1,14.09,3.1,19.47,0s5.37-8.14,0-11.24-14.1-3.11-19.47,0S495.76,227.07,501.14,230.18Z"/><path class="cls-9" d="M521.24,188.47c-1.6-2.34-4.64-5.14-10.37-5.14s-8.76,2.8-10.37,5.14c-.87,1.26-3.4,4.19-3.4,6.1v30c0,2,1.35,4.06,4,5.62,5.37,3.1,14.09,3.1,19.47,0,2.68-1.56,4-3.59,4-5.62v-30C524.64,192.66,522,189.58,521.24,188.47Z"/><path class="cls-6" d="M520.61,222.23c-5.38,3.1-14.1,3.1-19.47,0-2.69-1.55-4-3.59-4-5.62h0V197.85h0c.17,1.9,1.49,3.76,4,5.21,5.37,3.1,14.09,3.1,19.47,0,2.49-1.44,3.82-3.3,4-5.19h0v18.74C524.64,218.64,523.29,220.68,520.61,222.23Z"/><path class="cls-11" d="M504.17,187.47a14.85,14.85,0,0,0,13.4,0c3.7-2.14,3.7-5.6,0-7.74a14.85,14.85,0,0,0-13.4,0C500.47,181.87,500.47,185.33,504.17,187.47Z"/><rect class="cls-11" x="501.4" y="178.46" width="18.95" height="5.14" transform="translate(1021.74 362.06) rotate(180)"/><path class="cls-12" d="M504.17,182.33a14.85,14.85,0,0,0,13.4,0c3.7-2.14,3.7-5.6,0-7.74a14.79,14.79,0,0,0-13.4,0C500.47,176.73,500.47,180.19,504.17,182.33Z"/><path class="cls-13" d="M507.32,180.18a7.86,7.86,0,0,0,7.1,0c2-1.13,2-3,0-4.1a7.86,7.86,0,0,0-7.1,0C505.36,177.21,505.36,179.05,507.32,180.18Z"/><polygon class="cls-4" points="626.72 234.97 664.44 255.41 677.39 248.22 640.58 227.58 626.72 234.97"/><polygon class="cls-4" points="664.44 255.41 664.44 283.77 677.39 276.2 677.39 248.22 664.44 255.41"/><polygon class="cls-6" points="677.39 254.74 677.39 266.97 664.44 274.17 664.44 261.93 677.39 254.74"/><polygon class="cls-5" points="626.72 234.97 664.44 255.41 664.44 283.77 626.72 262.34 626.72 234.97"/><polygon class="cls-7" points="664.44 261.94 664.44 274.14 626.72 253.7 626.72 241.5 664.44 261.94"/><polygon class="cls-4" points="605.32 246.8 643.03 267.24 655.99 260.04 619.18 239.41 605.32 246.8"/><polygon class="cls-4" points="643.03 267.24 643.03 295.59 655.99 288.03 655.99 260.04 643.03 267.24"/><polygon class="cls-6" points="655.99 266.56 655.99 278.79 643.03 285.99 643.03 273.76 655.99 266.56"/><polygon class="cls-5" points="605.32 246.8 643.03 267.24 643.03 295.59 605.32 274.17 605.32 246.8"/><polygon class="cls-7" points="643.03 273.76 643.03 285.97 605.32 265.53 605.32 253.32 643.03 273.76"/><polygon class="cls-4" points="583.92 258.62 621.63 279.06 634.59 271.87 597.78 251.23 583.92 258.62"/><polygon class="cls-4" points="621.63 279.06 621.63 307.41 634.59 299.85 634.59 271.87 621.63 279.06"/><polygon class="cls-6" points="634.59 278.38 634.59 290.62 621.63 297.81 621.63 285.58 634.59 278.38"/><polygon class="cls-5" points="583.92 258.62 621.63 279.06 621.63 307.41 583.92 285.99 583.92 258.62"/><polygon class="cls-7" points="621.63 285.59 621.63 297.79 583.92 277.35 583.92 265.15 621.63 285.59"/><polygon class="cls-4" points="634.26 287.33 671.97 307.77 684.92 300.57 648.12 279.94 634.26 287.33"/><polygon class="cls-4" points="671.97 307.77 671.97 336.12 684.92 328.56 684.92 300.57 671.97 307.77"/><polygon class="cls-6" points="684.92 307.09 684.92 319.32 671.97 326.52 671.97 314.28 684.92 307.09"/><polygon class="cls-5" points="634.26 287.33 671.97 307.77 671.97 336.12 634.26 314.7 634.26 287.33"/><polygon class="cls-7" points="671.97 314.29 671.97 326.5 634.26 306.06 634.26 293.85 671.97 314.29"/><polygon class="cls-7" points="742.27 494.72 681.19 529.28 470.75 409.07 531.83 374.51 742.27 494.72"/><polygon class="cls-17" points="681.19 529.28 681.19 545.35 742.27 510.79 742.27 494.72 681.19 529.28"/><polygon class="cls-6" points="681.19 545.35 470.75 423.66 470.75 409.07 681.19 529.28 681.19 545.35"/><polygon class="cls-4" points="569.91 387.14 607.62 407.58 620.58 400.38 583.77 379.74 569.91 387.14"/><polygon class="cls-4" points="607.62 407.58 607.62 435.93 620.58 428.37 620.58 400.38 607.62 407.58"/><polygon class="cls-6" points="620.58 406.89 620.58 419.13 607.62 426.33 607.62 414.09 620.58 406.89"/><polygon class="cls-5" points="569.91 387.14 607.62 407.58 607.62 435.93 569.91 414.5 569.91 387.14"/><polygon class="cls-7" points="607.62 414.1 607.62 426.3 569.91 405.86 569.91 393.66 607.62 414.1"/><polygon class="cls-4" points="548.51 398.96 586.22 419.4 599.18 412.2 562.37 391.57 548.51 398.96"/><polygon class="cls-4" points="586.22 419.4 586.22 447.75 599.18 440.19 599.18 412.2 586.22 419.4"/><polygon class="cls-6" points="599.18 418.72 599.18 430.95 586.22 438.15 586.22 425.92 599.18 418.72"/><polygon class="cls-5" points="548.51 398.96 586.22 419.4 586.22 447.75 548.51 426.33 548.51 398.96"/><polygon class="cls-7" points="586.22 425.92 586.22 438.13 548.51 417.69 548.51 405.48 586.22 425.92"/><polygon class="cls-4" points="527.11 410.78 564.82 431.22 577.77 424.03 540.97 403.39 527.11 410.78"/><polygon class="cls-4" points="564.82 431.22 564.82 459.57 577.77 452.01 577.77 424.03 564.82 431.22"/><polygon class="cls-6" points="577.77 430.54 577.77 442.78 564.82 449.97 564.82 437.74 577.77 430.54"/><polygon class="cls-5" points="527.11 410.78 564.82 431.22 564.82 459.57 527.11 438.15 527.11 410.78"/><polygon class="cls-7" points="564.82 437.75 564.82 449.95 527.11 429.51 527.11 417.31 564.82 437.75"/><path class="cls-8" d="M533.93,398a16.12,16.12,0,0,0,14.57,0c4-2.32,4-6.09,0-8.41a16.12,16.12,0,0,0-14.57,0C529.91,391.9,529.91,395.67,533.93,398Z"/><path class="cls-9" d="M548.5,367.14a16.12,16.12,0,0,0-14.57,0c-2,1.16-3,2.68-3,4.21h0v22.44c0,1.52,1,3,3,4.2a16.12,16.12,0,0,0,14.57,0c2-1.16,3-2.68,3-4.2V371.35h0C551.52,369.82,550.51,368.3,548.5,367.14Z"/><path class="cls-10" d="M548.5,392a16.06,16.06,0,0,1-14.57,0c-2-1.16-3-2.68-3-4.2h0v-14h0c.12,1.42,1.11,2.82,3,3.9a16.12,16.12,0,0,0,14.57,0c1.87-1.08,2.86-2.47,3-3.88h0v14C551.52,389.36,550.51,390.88,548.5,392Z"/><path class="cls-11" d="M533.93,368.22a16.12,16.12,0,0,0,14.57,0c4-2.33,4-6.09,0-8.42a16.12,16.12,0,0,0-14.57,0C529.91,362.13,529.91,365.89,533.93,368.22Z"/><rect class="cls-11" x="530.92" y="358.42" width="20.6" height="5.59" transform="translate(1082.43 722.43) rotate(180)"/><path class="cls-12" d="M533.93,362.62a16.06,16.06,0,0,0,14.57,0c4-2.32,4-6.08,0-8.41a16.12,16.12,0,0,0-14.57,0C529.91,356.54,529.91,360.3,533.93,362.62Z"/><path class="cls-13" d="M537.36,360.29a8.54,8.54,0,0,0,7.72,0c2.13-1.23,2.13-3.23,0-4.46a8.54,8.54,0,0,0-7.72,0C535.22,357.06,535.22,359.06,537.36,360.29Z"/><path class="cls-8" d="M685.87,486.93a16.12,16.12,0,0,0,14.57,0c4-2.32,4-6.09,0-8.41a16.12,16.12,0,0,0-14.57,0C681.85,480.84,681.85,484.61,685.87,486.93Z"/><path class="cls-9" d="M700.44,456.08a16.12,16.12,0,0,0-14.57,0c-2,1.16-3,2.68-3,4.21h0v22.44c0,1.52,1,3,3,4.2a16.12,16.12,0,0,0,14.57,0c2-1.16,3-2.68,3-4.21V460.29h0C703.46,458.76,702.45,457.24,700.44,456.08Z"/><path class="cls-10" d="M700.44,481a16.06,16.06,0,0,1-14.57,0c-2-1.16-3-2.68-3-4.2h0v-14h0c.13,1.42,1.11,2.82,3,3.9a16.12,16.12,0,0,0,14.57,0c1.87-1.08,2.86-2.47,3-3.88h0v14C703.45,478.3,702.45,479.82,700.44,481Z"/><path class="cls-11" d="M685.87,457.16a16.12,16.12,0,0,0,14.57,0c4-2.33,4-6.09,0-8.42a16.12,16.12,0,0,0-14.57,0C681.85,451.07,681.85,454.83,685.87,457.16Z"/><rect class="cls-11" x="682.85" y="447.36" width="20.6" height="5.59" transform="translate(1386.31 900.31) rotate(180)"/><path class="cls-12" d="M685.87,451.56a16.06,16.06,0,0,0,14.57,0c4-2.32,4-6.09,0-8.41a16.12,16.12,0,0,0-14.57,0C681.85,445.48,681.85,449.24,685.87,451.56Z"/><path class="cls-13" d="M689.29,449.23a8.54,8.54,0,0,0,7.72,0c2.14-1.23,2.14-3.23,0-4.46a8.54,8.54,0,0,0-7.72,0C687.16,446,687.16,448,689.29,449.23Z"/><path class="cls-14" d="M501.14,415c5.37,3.1,14.09,3.1,19.47,0s5.37-8.14,0-11.24-14.1-3.11-19.47,0S495.76,411.85,501.14,415Z"/><path class="cls-9" d="M521.24,373.25c-1.6-2.34-4.64-5.14-10.37-5.14s-8.76,2.8-10.37,5.14c-.87,1.26-3.4,4.19-3.4,6.1v30c0,2,1.35,4.07,4,5.62,5.37,3.1,14.09,3.1,19.47,0,2.68-1.55,4-3.59,4-5.62v-30C524.64,377.44,522,374.36,521.24,373.25Z"/><path class="cls-6" d="M520.61,407c-5.38,3.1-14.1,3.1-19.47,0-2.69-1.55-4-3.59-4-5.62h0V382.63h0c.17,1.9,1.49,3.76,4,5.21,5.37,3.1,14.09,3.1,19.47,0,2.49-1.44,3.82-3.3,4-5.19h0v18.74C524.64,403.42,523.29,405.46,520.61,407Z"/><path class="cls-11" d="M504.17,372.25a14.79,14.79,0,0,0,13.4,0c3.7-2.14,3.7-5.6,0-7.74a14.85,14.85,0,0,0-13.4,0C500.47,366.65,500.47,370.11,504.17,372.25Z"/><rect class="cls-11" x="501.4" y="363.24" width="18.95" height="5.14" transform="translate(1021.74 731.62) rotate(180)"/><path class="cls-12" d="M504.17,367.11a14.85,14.85,0,0,0,13.4,0c3.7-2.14,3.7-5.6,0-7.74a14.79,14.79,0,0,0-13.4,0C500.47,361.51,500.47,365,504.17,367.11Z"/><path class="cls-13" d="M507.32,365a7.86,7.86,0,0,0,7.1,0c2-1.13,2-3,0-4.1a7.86,7.86,0,0,0-7.1,0C505.36,362,505.36,363.83,507.32,365Z"/><polygon class="cls-4" points="626.72 419.76 664.44 440.2 677.39 433 640.58 412.36 626.72 419.76"/><polygon class="cls-4" points="664.44 440.2 664.44 468.55 677.39 460.99 677.39 433 664.44 440.2"/><polygon class="cls-6" points="677.39 439.52 677.39 451.75 664.44 458.95 664.44 446.71 677.39 439.52"/><polygon class="cls-5" points="626.72 419.76 664.44 440.2 664.44 468.55 626.72 447.13 626.72 419.76"/><polygon class="cls-7" points="664.44 446.72 664.44 458.92 626.72 438.48 626.72 426.28 664.44 446.72"/><polygon class="cls-4" points="605.32 431.58 643.03 452.02 655.99 444.82 619.18 424.19 605.32 431.58"/><polygon class="cls-4" points="643.03 452.02 643.03 480.37 655.99 472.81 655.99 444.82 643.03 452.02"/><polygon class="cls-6" points="655.99 451.34 655.99 463.57 643.03 470.77 643.03 458.54 655.99 451.34"/><polygon class="cls-5" points="605.32 431.58 643.03 452.02 643.03 480.37 605.32 458.95 605.32 431.58"/><polygon class="cls-7" points="643.03 458.54 643.03 470.75 605.32 450.31 605.32 438.1 643.03 458.54"/><polygon class="cls-4" points="583.92 443.4 621.63 463.84 634.59 456.65 597.78 436.01 583.92 443.4"/><polygon class="cls-4" points="621.63 463.84 621.63 492.19 634.59 484.63 634.59 456.65 621.63 463.84"/><polygon class="cls-6" points="634.59 463.16 634.59 475.4 621.63 482.59 621.63 470.36 634.59 463.16"/><polygon class="cls-5" points="583.92 443.4 621.63 463.84 621.63 492.19 583.92 470.77 583.92 443.4"/><polygon class="cls-7" points="621.63 470.37 621.63 482.57 583.92 462.13 583.92 449.93 621.63 470.37"/><polygon class="cls-4" points="634.26 472.11 671.97 492.55 684.92 485.35 648.12 464.72 634.26 472.11"/><polygon class="cls-4" points="671.97 492.55 671.97 520.9 684.92 513.34 684.92 485.35 671.97 492.55"/><polygon class="cls-6" points="684.92 491.87 684.92 504.1 671.97 511.3 671.97 499.06 684.92 491.87"/><polygon class="cls-5" points="634.26 472.11 671.97 492.55 671.97 520.9 634.26 499.48 634.26 472.11"/><polygon class="cls-7" points="671.97 499.07 671.97 511.27 634.26 490.83 634.26 478.63 671.97 499.07"/><polygon class="cls-18" points="919.61 738.14 853.3 776.66 715.19 695.44 782.17 659.29 919.61 738.14"/><polygon class="cls-17" points="919.61 338.11 919.61 738.14 782.17 659.29 782.17 259.26 919.61 338.11"/><polygon class="cls-6" points="919.61 738.14 933.02 730.65 933.02 331.22 919.61 338.11 919.61 738.14"/><polygon class="cls-7" points="933.02 331.22 796.5 252.18 782.17 259.26 919.61 338.11 933.02 331.22"/><polygon class="cls-7" points="919.61 409.45 858.53 444.01 721.4 364.69 782.48 330.13 919.61 409.45"/><polygon class="cls-17" points="858.53 444.01 858.53 460.09 919.61 425.53 919.61 409.45 858.53 444.01"/><polygon class="cls-6" points="858.53 460.09 721.4 379.28 721.4 364.69 858.53 444.01 858.53 460.09"/><polygon class="cls-10" points="765.42 287.89 803.14 308.33 816.09 301.14 779.28 280.5 765.42 287.89"/><polygon class="cls-19" points="803.14 308.33 803.14 366.92 816.09 359.36 816.09 301.14 803.14 308.33"/><polygon class="cls-6" points="816.09 311.23 816.09 333.06 803.14 340.26 803.14 318.43 816.09 311.23"/><polygon class="cls-19" points="765.42 287.89 803.14 308.33 803.14 366.92 765.42 345.5 765.42 287.89"/><polygon class="cls-7" points="803.14 318.44 803.14 340.23 765.42 319.79 765.42 297.99 803.14 318.44"/><polygon class="cls-10" points="741.62 307.66 779.33 328.1 792.28 320.9 755.48 300.26 741.62 307.66"/><polygon class="cls-19" points="779.33 328.1 779.33 386.69 792.28 379.13 792.28 320.9 779.33 328.1"/><polygon class="cls-6" points="792.28 331 792.28 352.82 779.33 360.02 779.33 338.19 792.28 331"/><polygon class="cls-19" points="741.62 307.66 779.33 328.1 779.33 386.69 741.62 365.27 741.62 307.66"/><polygon class="cls-7" points="779.33 338.2 779.33 360 741.62 339.56 741.62 317.76 779.33 338.2"/><path class="cls-14" d="M824.09,380.08c5.37,3.1,14.09,3.1,19.47,0s5.37-8.14,0-11.24-14.1-3.11-19.47,0S818.71,377,824.09,380.08Z"/><path class="cls-9" d="M820.05,344.47h27.54v30c0,2-1.35,4.07-4,5.62-5.38,3.1-14.1,3.1-19.47,0-2.69-1.55-4-3.59-4-5.62h0Z"/><path class="cls-10" d="M843.56,372.13c-5.38,3.1-14.1,3.1-19.47,0-2.69-1.55-4-3.59-4-5.62h0V347.75h0c.17,1.9,1.49,3.76,4,5.21,5.37,3.11,14.09,3.11,19.47,0,2.49-1.44,3.82-3.3,4-5.19h0v18.74C847.59,368.54,846.24,370.58,843.56,372.13Z"/><path class="cls-14" d="M824.09,350.09c5.37,3.11,14.09,3.11,19.47,0s5.37-8.14,0-11.24-14.1-3.1-19.47,0S818.71,347,824.09,350.09Z"/><path class="cls-11" d="M824.09,340.29c5.37,3.1,14.09,3.1,19.47,0s5.37-8.14,0-11.24-14.1-3.11-19.47,0S818.71,337.18,824.09,340.29Z"/><rect class="cls-11" x="820.05" y="327.19" width="27.53" height="7.47" transform="translate(1667.64 661.86) rotate(180)"/><path class="cls-12" d="M824.09,332.81c5.37,3.11,14.09,3.11,19.47,0s5.37-8.13,0-11.24-14.1-3.1-19.47,0S818.71,329.71,824.09,332.81Z"/><path class="cls-13" d="M828.66,329.7a11.44,11.44,0,0,0,10.32,0c2.85-1.65,2.85-4.31,0-6a11.44,11.44,0,0,0-10.32,0C825.81,325.39,825.81,328.05,828.66,329.7Z"/><path class="cls-14" d="M793.74,397.63c5.38,3.1,14.09,3.1,19.47,0s5.38-8.14,0-11.24-14.09-3.11-19.47,0S788.36,394.53,793.74,397.63Z"/><path class="cls-9" d="M789.71,362h27.53v30c0,2-1.34,4.07-4,5.62-5.38,3.1-14.09,3.1-19.47,0-2.69-1.55-4-3.59-4-5.62h0Z"/><path class="cls-10" d="M813.21,389.68c-5.38,3.11-14.09,3.11-19.47,0-2.69-1.55-4-3.58-4-5.62h0V365.3h0c.16,1.89,1.48,3.76,4,5.2,5.38,3.11,14.09,3.11,19.47,0,2.5-1.44,3.82-3.3,4-5.19h0v18.74C817.24,386.1,815.9,388.13,813.21,389.68Z"/><path class="cls-14" d="M793.74,367.64c5.38,3.11,14.09,3.11,19.47,0s5.38-8.13,0-11.24-14.09-3.1-19.47,0S788.36,364.54,793.74,367.64Z"/><path class="cls-11" d="M793.74,357.84c5.38,3.1,14.09,3.1,19.47,0s5.38-8.14,0-11.24-14.09-3.11-19.47,0S788.36,354.74,793.74,357.84Z"/><rect class="cls-11" x="789.71" y="344.75" width="27.53" height="7.47" transform="translate(1606.95 696.97) rotate(180)"/><path class="cls-12" d="M793.74,350.37c5.38,3.1,14.09,3.1,19.47,0s5.38-8.14,0-11.24-14.09-3.11-19.47,0S788.36,347.26,793.74,350.37Z"/><path class="cls-13" d="M798.32,347.25a11.42,11.42,0,0,0,10.31,0c2.85-1.65,2.85-4.31,0-6a11.42,11.42,0,0,0-10.31,0C795.47,342.94,795.47,345.6,798.32,347.25Z"/><path class="cls-14" d="M863.88,404.57c5.38,3.1,14.09,3.1,19.47,0s5.38-8.14,0-11.24-14.09-3.11-19.47,0S858.5,401.46,863.88,404.57Z"/><path class="cls-5" d="M859.85,369h27.53v30c0,2-1.34,4.06-4,5.62-5.38,3.1-14.09,3.1-19.47,0-2.69-1.55-4-3.59-4-5.62h0Z"/><path class="cls-4" d="M883.35,396.62c-5.38,3.1-14.09,3.1-19.47,0-2.69-1.55-4-3.59-4-5.62h0V372.24h0c.16,1.9,1.48,3.76,4,5.21,5.38,3.1,14.09,3.1,19.47,0,2.5-1.44,3.82-3.3,4-5.19h0V391C887.38,393,886,395.07,883.35,396.62Z"/><path class="cls-4" d="M863.88,374.58c5.38,3.1,14.09,3.1,19.47,0s5.38-8.14,0-11.24-14.09-3.1-19.47,0S858.5,371.48,863.88,374.58Z"/><path class="cls-11" d="M863.88,364.78c5.38,3.1,14.09,3.1,19.47,0s5.38-8.14,0-11.24-14.09-3.11-19.47,0S858.5,361.67,863.88,364.78Z"/><rect class="cls-11" x="859.85" y="351.68" width="27.53" height="7.47" transform="translate(1747.23 710.84) rotate(180)"/><path class="cls-12" d="M863.88,357.3c5.38,3.11,14.09,3.11,19.47,0s5.38-8.13,0-11.24-14.09-3.1-19.47,0S858.5,354.2,863.88,357.3Z"/><path class="cls-13" d="M868.46,354.19a11.42,11.42,0,0,0,10.31,0c2.85-1.65,2.85-4.32,0-6a11.36,11.36,0,0,0-10.31,0C865.61,349.87,865.61,352.54,868.46,354.19Z"/><path class="cls-14" d="M833.53,422.12c5.38,3.1,14.1,3.1,19.47,0s5.38-8.14,0-11.24-14.09-3.11-19.47,0S828.16,419,833.53,422.12Z"/><path class="cls-5" d="M829.5,386.51H857v30c0,2-1.35,4.07-4,5.62-5.37,3.1-14.09,3.1-19.47,0-2.69-1.55-4-3.59-4-5.62h0Z"/><path class="cls-4" d="M853,414.17c-5.37,3.1-14.09,3.1-19.47,0-2.69-1.55-4-3.59-4-5.62h0V389.79h0c.17,1.89,1.49,3.76,4,5.2,5.38,3.11,14.1,3.11,19.47,0,2.5-1.44,3.82-3.3,4-5.19h0v18.74C857,410.59,855.69,412.62,853,414.17Z"/><path class="cls-4" d="M833.53,392.13c5.38,3.11,14.1,3.11,19.47,0s5.38-8.13,0-11.24-14.09-3.1-19.47,0S828.16,389,833.53,392.13Z"/><path class="cls-11" d="M833.53,382.33c5.38,3.1,14.1,3.1,19.47,0s5.38-8.14,0-11.24-14.09-3.11-19.47,0S828.16,379.22,833.53,382.33Z"/><rect class="cls-11" x="829.5" y="369.24" width="27.53" height="7.47" transform="translate(1686.54 745.94) rotate(180)"/><path class="cls-12" d="M833.53,374.86c5.38,3.1,14.1,3.1,19.47,0s5.38-8.14,0-11.25-14.09-3.1-19.47,0S828.16,371.75,833.53,374.86Z"/><path class="cls-13" d="M838.11,371.74a11.44,11.44,0,0,0,10.32,0c2.85-1.65,2.85-4.31,0-6a11.44,11.44,0,0,0-10.32,0C835.26,367.43,835.26,370.09,838.11,371.74Z"/><polygon class="cls-7" points="919.61 594.23 858.53 628.79 721.4 549.47 782.48 514.91 919.61 594.23"/><polygon class="cls-17" points="858.53 628.79 858.53 644.87 919.61 610.31 919.61 594.23 858.53 628.79"/><polygon class="cls-6" points="858.53 644.87 721.4 564.06 721.4 549.47 858.53 628.79 858.53 644.87"/><polygon class="cls-10" points="767.02 474.65 804.73 495.09 817.69 487.9 780.88 467.26 767.02 474.65"/><polygon class="cls-19" points="804.73 495.09 804.73 553.68 817.69 546.12 817.69 487.9 804.73 495.09"/><polygon class="cls-6" points="817.69 497.99 817.69 519.82 804.73 527.02 804.73 505.19 817.69 497.99"/><polygon class="cls-19" points="767.02 474.65 804.73 495.09 804.73 553.68 767.02 532.26 767.02 474.65"/><polygon class="cls-7" points="804.73 505.19 804.73 526.99 767.02 506.55 767.02 484.75 804.73 505.19"/><polygon class="cls-10" points="743.21 494.42 780.92 514.86 793.88 507.66 757.07 487.02 743.21 494.42"/><polygon class="cls-19" points="780.92 514.86 780.92 573.45 793.88 565.89 793.88 507.66 780.92 514.86"/><polygon class="cls-6" points="793.88 517.75 793.88 539.58 780.92 546.78 780.92 524.95 793.88 517.75"/><polygon class="cls-19" points="743.21 494.42 780.92 514.86 780.92 573.45 743.21 552.03 743.21 494.42"/><polygon class="cls-7" points="780.92 524.96 780.92 546.76 743.21 526.32 743.21 504.52 780.92 524.96"/><path class="cls-14" d="M825.68,566.84c5.38,3.1,14.09,3.1,19.47,0s5.38-8.14,0-11.24-14.09-3.11-19.47,0S820.3,563.73,825.68,566.84Z"/><path class="cls-9" d="M821.65,531.23h27.53v30c0,2-1.34,4.07-4,5.62-5.38,3.1-14.09,3.1-19.47,0-2.69-1.55-4-3.59-4-5.62h0Z"/><path class="cls-10" d="M845.15,558.89c-5.38,3.1-14.09,3.1-19.47,0-2.69-1.55-4-3.59-4-5.62h0V534.51h0c.16,1.9,1.48,3.76,4,5.21,5.38,3.11,14.09,3.11,19.47,0,2.5-1.44,3.82-3.3,4-5.19h0v18.74C849.18,555.3,847.84,557.34,845.15,558.89Z"/><path class="cls-14" d="M825.68,536.85c5.38,3.11,14.09,3.11,19.47,0s5.38-8.14,0-11.24-14.09-3.1-19.47,0S820.3,533.75,825.68,536.85Z"/><path class="cls-11" d="M825.68,527.05c5.38,3.1,14.09,3.1,19.47,0s5.38-8.14,0-11.24-14.09-3.11-19.47,0S820.3,523.94,825.68,527.05Z"/><rect class="cls-11" x="821.65" y="513.95" width="27.53" height="7.47" transform="translate(1670.83 1035.38) rotate(180)"/><path class="cls-12" d="M825.68,519.58c5.38,3.1,14.09,3.1,19.47,0s5.38-8.13,0-11.24-14.09-3.1-19.47,0S820.3,516.47,825.68,519.58Z"/><path class="cls-13" d="M830.26,516.46a11.42,11.42,0,0,0,10.31,0c2.85-1.65,2.85-4.31,0-6a11.42,11.42,0,0,0-10.31,0C827.41,512.15,827.41,514.81,830.26,516.46Z"/><path class="cls-14" d="M795.33,584.39c5.38,3.1,14.1,3.1,19.47,0s5.38-8.14,0-11.24-14.09-3.11-19.47,0S790,581.29,795.33,584.39Z"/><path class="cls-9" d="M791.3,548.78h27.54v30c0,2-1.35,4.07-4,5.62-5.37,3.1-14.09,3.1-19.47,0-2.68-1.55-4-3.59-4-5.62h0Z"/><path class="cls-10" d="M814.8,576.44c-5.37,3.11-14.09,3.11-19.47,0-2.68-1.55-4-3.58-4-5.62h0V552.06h0c.17,1.89,1.49,3.76,4,5.2,5.38,3.11,14.1,3.11,19.47,0,2.5-1.44,3.82-3.3,4-5.19h0v18.74C818.83,572.86,817.49,574.89,814.8,576.44Z"/><path class="cls-14" d="M795.33,554.4c5.38,3.11,14.1,3.11,19.47,0s5.38-8.13,0-11.24-14.09-3.1-19.47,0S790,551.3,795.33,554.4Z"/><path class="cls-11" d="M795.33,544.6c5.38,3.1,14.1,3.1,19.47,0s5.38-8.14,0-11.24-14.09-3.11-19.47,0S790,541.5,795.33,544.6Z"/><rect class="cls-11" x="791.3" y="531.51" width="27.53" height="7.47" transform="translate(1610.14 1070.49) rotate(180)"/><path class="cls-12" d="M795.33,537.13c5.38,3.1,14.1,3.1,19.47,0s5.38-8.14,0-11.24-14.09-3.11-19.47,0S790,534,795.33,537.13Z"/><path class="cls-13" d="M799.91,534a11.44,11.44,0,0,0,10.32,0c2.85-1.65,2.85-4.31,0-6a11.44,11.44,0,0,0-10.32,0C797.06,529.7,797.06,532.36,799.91,534Z"/><path class="cls-14" d="M865.47,591.33c5.38,3.1,14.1,3.1,19.47,0s5.38-8.14,0-11.24-14.09-3.11-19.47,0S860.1,588.22,865.47,591.33Z"/><path class="cls-5" d="M861.44,555.72H889v30c0,2-1.35,4.07-4,5.62-5.37,3.1-14.09,3.1-19.47,0-2.69-1.55-4-3.59-4-5.62h0Z"/><path class="cls-4" d="M884.94,583.38c-5.37,3.1-14.09,3.1-19.47,0-2.69-1.55-4-3.59-4-5.62h0V559h0c.17,1.9,1.49,3.76,4,5.21,5.38,3.1,14.1,3.1,19.47,0,2.5-1.44,3.82-3.3,4-5.19h0v18.74C889,579.79,887.63,581.83,884.94,583.38Z"/><path class="cls-4" d="M865.47,561.34c5.38,3.1,14.1,3.1,19.47,0s5.38-8.14,0-11.24-14.09-3.1-19.47,0S860.1,558.24,865.47,561.34Z"/><path class="cls-11" d="M865.47,551.54c5.38,3.1,14.1,3.1,19.47,0s5.38-8.14,0-11.24-14.09-3.11-19.47,0S860.1,548.43,865.47,551.54Z"/><rect class="cls-11" x="861.44" y="538.44" width="27.53" height="7.47" transform="translate(1750.42 1084.36) rotate(180)"/><path class="cls-12" d="M865.47,544.06c5.38,3.11,14.1,3.11,19.47,0s5.38-8.13,0-11.24-14.09-3.1-19.47,0S860.1,541,865.47,544.06Z"/><path class="cls-13" d="M870.05,541a11.44,11.44,0,0,0,10.32,0c2.85-1.65,2.85-4.32,0-6a11.38,11.38,0,0,0-10.32,0C867.2,536.63,867.2,539.3,870.05,541Z"/><path class="cls-14" d="M835.13,608.88c5.37,3.1,14.09,3.1,19.47,0s5.37-8.14,0-11.24-14.1-3.11-19.47,0S829.75,605.78,835.13,608.88Z"/><path class="cls-5" d="M831.09,573.27h27.54v30c0,2-1.34,4.07-4,5.62-5.38,3.1-14.1,3.1-19.47,0-2.69-1.55-4-3.59-4-5.62h0Z"/><path class="cls-4" d="M854.6,600.93c-5.38,3.1-14.1,3.1-19.47,0-2.69-1.55-4-3.59-4-5.62h0V576.55h0c.17,1.89,1.49,3.76,4,5.2,5.37,3.11,14.09,3.11,19.47,0,2.49-1.44,3.82-3.3,4-5.19h0v18.74C858.63,597.35,857.28,599.38,854.6,600.93Z"/><path class="cls-4" d="M835.13,578.89c5.37,3.11,14.09,3.11,19.47,0s5.37-8.13,0-11.24-14.1-3.1-19.47,0S829.75,575.79,835.13,578.89Z"/><path class="cls-11" d="M835.13,569.09c5.37,3.1,14.09,3.1,19.47,0s5.37-8.14,0-11.24-14.1-3.11-19.47,0S829.75,566,835.13,569.09Z"/><rect class="cls-11" x="831.09" y="556" width="27.53" height="7.47" transform="translate(1689.72 1119.46) rotate(180)"/><path class="cls-12" d="M835.13,561.62c5.37,3.1,14.09,3.1,19.47,0s5.37-8.14,0-11.24-14.1-3.11-19.47,0S829.75,558.51,835.13,561.62Z"/><path class="cls-13" d="M839.7,558.5a11.44,11.44,0,0,0,10.32,0c2.85-1.65,2.85-4.31,0-6a11.44,11.44,0,0,0-10.32,0C836.85,554.19,836.85,556.85,839.7,558.5Z"/><ellipse class="cls-20" cx="585.22" cy="744.52" rx="52.08" ry="82.38" transform="translate(-293.72 1097.01) rotate(-73.68)"/><path class="cls-5" d="M527.7,525.53s24.85,18.29,95.2,12.61L600.69,404.08l-58.16-2.25S553.07,482.34,527.7,525.53Z"/><path class="cls-21" d="M568.34,688.82h-17.2A136.65,136.65,0,0,1,550,704.14c-.23,5.94-7.81,14.11-10.61,16.72.46,19.66,31.63-8.4,31.63-8.4,1-5.2-1-11.45-1.87-14.82A41.78,41.78,0,0,1,568.34,688.82Z"/><path class="cls-22" d="M573.66,701s-1.72-1.73-3.42.68c0,0,.92,5,.49,5.72-1.23,1.94-7.24,5.69-11.2,6.54-1.6.34-2.25.14-3.38-1.61a7.06,7.06,0,0,0-2.79-7c-3.77-3-5.56.79-5.56.79s-.47,7.64-11.58,14.68c-11.44,7.25-19.3,10.69-15.28,16.73,2.24,3.35,13.26,6.06,18.06,4.65,3.54-1,8.62-3.21,17.58-8.57,8.43-5,19.84-12.44,20-15.63C576.84,713.77,576.71,701.74,573.66,701Z"/><path class="cls-23" d="M575.92,701.17c-9.26,8.63-24.76,5.49-32.54,1.47,0-16.68-2-85.84-1.09-98.41-2-65.73,7.26-145.27,7.29-135.84,0,0,51.12-30.69,53.13,14.34,1.46,32.74-8.53,89.53-15,123.68-3,15.92-1.14,28.75-1.35,32.67C584.31,676.4,575.87,700.91,575.92,701.17Z"/><path class="cls-24" d="M572.47,685.42c1.19-29.51-1.6-59-1.9-88.45-.26-25.38,5.73-51.07,2.35-76.32-2.5-18.62-2.35-37.85-15.64-50.41.09-3,43.42-32.54,45.43,12.49,1.46,32.74-8.53,89.53-15,123.68-3,15.92-1.14,28.75-1.35,32.67-2.06,37.32-10.5,61.83-10.45,62.09a20.9,20.9,0,0,1-6.5,4A94.32,94.32,0,0,0,572.47,685.42Z"/><path class="cls-22" d="M633.93,721s1.8,1.2,1.8,16.81,4.49,21.05,1.6,29.21c-2.63,7.46-5,10.61-12.8,10.61s-14.21-6.6-14.41-15.21,3.2-12.2,4.8-23.21-.8-16.61,3.2-19.81S632.58,715.34,633.93,721Z"/><path class="cls-21" d="M631.53,725v12.64H630c-.27-1.29-1.52-2.24-4.55-2.28-5.11-.08-5.6,2.28-5.6,2.28h-1.41s.2-9.29,1-13.36S631.48,719.12,631.53,725Z"/><path class="cls-23" d="M639.05,720.86c-8.41,10.32-24.65,10.06-33.34,7-2.44-8.91-3.65-67.15-8.49-91.86-5-21.34-19.05-153.78-19.05-153.78s48.83-39.31,57.39,7.31c6.23,33.89,4,94.46,2.16,131-.85,17,2.95,30.1,3.29,34.21C644.23,693.85,639,720.6,639.05,720.86Z"/><path class="cls-24" d="M630.88,691.6c-.62-23.5,0-47.12-4-70.37-4.22-24.09-9.08-51-31-61.4-23.13-11-10.37-56.16-10.21-82a4.69,4.69,0,0,0-.07-.77c14-8.87,43.51-22.78,50,12.49,6.23,33.89,4,94.46,2.16,131-.85,17,2.95,30.1,3.29,34.21,3.22,39.16-2,65.91-2,66.17a24.17,24.17,0,0,1-6.56,5.66C632.35,714.87,631.19,703.14,630.88,691.6Z"/><path class="cls-5" d="M503.94,448c2.09,7.71,1.08,14.84-2.86,15.91s-9.32-4.33-11.41-12-1.26-14.49,2.68-15.56S501.84,440.33,503.94,448Z"/><path class="cls-21" d="M503.9,452.67c2.36-1.42,8.85-3.22,8.87-5.86,0-4.36-3.12-6.73-4.22-10.53-2.72-.6-3.6-.75-6.64.46-.4.16-5.71,3.14-6.3,3.24-4.56.78-7.72.41-11.58,2.43-2.34,1.22-4.39,3.57-6.72,4.93-2.85,1.65-7,5-7,8.22s2.13,5.59,3.43,7.77c2.66,4.45,5.9,4.64,15.28,1.15,2.48-.92,9.93-7.79,12.62-10.28A13.57,13.57,0,0,1,503.9,452.67Z"/><path class="cls-21" d="M472.29,441.71a12.84,12.84,0,0,1,4.09-1.85,10.59,10.59,0,0,1,4.69.07,23.56,23.56,0,0,1,4.1,1.45c1.28.56,2.51,1.15,3.72,1.73a2,2,0,0,1-1.74,3.66l-.16-.09h0a40.08,40.08,0,0,0-6.77-3.58,7.32,7.32,0,0,0-3.29-.39,9.92,9.92,0,0,0-3.34,1.15h0a1.24,1.24,0,0,1-1.68-.52A1.26,1.26,0,0,1,472.29,441.71Z"/><path class="cls-21" d="M477.42,454a12,12,0,0,1-4.7,2.15,9.14,9.14,0,0,1-5.26-.4,7.35,7.35,0,0,1-3.89-3.65,11.09,11.09,0,0,1-1-4.93,1.12,1.12,0,0,1,2.24-.06v.06a8.5,8.5,0,0,0,.95,3.76,4.64,4.64,0,0,0,2.63,2.19,6.14,6.14,0,0,0,3.58,0,8.84,8.84,0,0,0,3.3-1.78,1.69,1.69,0,0,1,2.19,2.57l-.08.06Z"/><path class="cls-21" d="M478.45,459.74c-1.22.47-2.45,1-3.77,1.45a11.88,11.88,0,0,1-4.48.86,5.27,5.27,0,0,1-1.34-.29l-.66-.27c-.2-.13-.39-.27-.58-.41a2.07,2.07,0,0,1-.51-.46l-.44-.51A9.66,9.66,0,0,1,466,459a14.68,14.68,0,0,1-1-4.24,1.12,1.12,0,0,1,2.21-.38v.07a13,13,0,0,0,1.07,3.41c.15.21.28.44.43.62s.29.36.48.41a1.87,1.87,0,0,0,1.12.31,9.47,9.47,0,0,0,3.24-.93c1.16-.5,2.34-1.09,3.56-1.67a1.69,1.69,0,0,1,1.44,3.06Z"/><path class="cls-21" d="M479.24,465.06a9.19,9.19,0,0,1-4.79.71,4.63,4.63,0,0,1-2.57-1.49,5.37,5.37,0,0,1-1.09-2.43,12.55,12.55,0,0,1,0-4.46,29.46,29.46,0,0,1,1-4,1.12,1.12,0,0,1,2.17.57V454a27.6,27.6,0,0,0-.67,3.75,10.14,10.14,0,0,0,.18,3.48,2.6,2.6,0,0,0,.58,1.13,1.6,1.6,0,0,0,.86.4,6.5,6.5,0,0,0,2.94-.77l0,0a1.69,1.69,0,0,1,1.45,3.06Z"/><path class="cls-21" d="M491.05,460.89a24.33,24.33,0,0,1-4.29,2.67,12.21,12.21,0,0,1-5.17,1.27,6.12,6.12,0,0,1-2.91-.71,5,5,0,0,1-2.08-2.4,7.55,7.55,0,0,1-.35-1.44,9.41,9.41,0,0,1,0-1.4,11.33,11.33,0,0,1,.18-1.32l.31-1.25a1.11,1.11,0,0,1,1.35-.82,1.13,1.13,0,0,1,.83,1.34l0,.08a6.26,6.26,0,0,0,.06,3.83,2.29,2.29,0,0,0,1,1,3.38,3.38,0,0,0,1.63.25,9.35,9.35,0,0,0,3.81-1.23,20.6,20.6,0,0,0,3.53-2.5l.07-.06a1.69,1.69,0,1,1,2.15,2.6Z"/><path class="cls-25" d="M501.08,463.94c6.14-7.06.4-27.06-8.73-27.59.91-.13,34.64-21,43.5-27.35a123,123,0,0,1,12.36-8c17.14-.55,7.88,25,7.85,25.57C551.65,429,505.13,463,501.08,463.94Z"/><path class="cls-26" d="M545,428.09a262.17,262.17,0,0,1-41.37,26.08c.21,3.88-.52,7.5-2.5,9.77,4.05-.94,50.57-35,55-37.35a64.78,64.78,0,0,0,2.28-10.19A131.41,131.41,0,0,1,545,428.09Z"/><path class="cls-25" d="M561.88,324.12s-21.69,6.27-25.15,21.24a134.57,134.57,0,0,0-3,38.17c.68,9.82-.28,36.52-.28,36.52L547,412.28l7.84-59.84Z"/><path class="cls-4" d="M632.34,423.72a231.88,231.88,0,0,0-10,21.13c-8.84,14.75-30.44,36.67-49.69,33a63.26,63.26,0,0,1-23.06-9.48c-1.37-16.58-3.89-19.75-2.56-76.73,1.12-47.61,21.21-56.52,28.14-72.8h7.39l35,15.59s7.54,7.13,14.73,13.47A25.1,25.1,0,0,1,640.52,370C637.92,390,632.34,423.72,632.34,423.72Z"/><path class="cls-27" d="M572.1,477.76a39.35,39.35,0,0,0-1.47-5.48c-2.7-7.68-7.53-14-8-22.4-.43-8,3.05-14.54,4.85-22.09a4.89,4.89,0,0,0,.13-1,61.85,61.85,0,0,0,2.11-11.11c1-8.7,2.07-18.67,5.6-26.56a220,220,0,0,0,12.51-34.64c12.85-3.85,29.67-20.06,29.67-20.06s7.54,7.13,14.73,13.47A25.1,25.1,0,0,1,640.52,370c-2.6,20-8.18,53.74-8.18,53.74a231.88,231.88,0,0,0-10,21.13c-8.84,14.75-30.44,36.67-49.69,33Z"/><polygon class="cls-14" points="582.99 354.6 577.41 363.13 569.18 360.22 569.59 350.82 576.33 347.45 582.99 354.6"/><polygon class="cls-14" points="577.41 363.13 568.92 471.97 558.93 481.31 552.63 467.29 569.18 360.22 577.41 363.13"/><path class="cls-21" d="M582.08,315.76s0,9.73.08,9.87c-20.54,33.84,18.45,34.62,25.26,4.79-5.48-9.85-3.54-32.49-3.54-32.49C603.88,296.86,582.08,314.47,582.08,315.76Z"/><polygon class="cls-5" points="579.23 348.49 577.05 354.25 588.94 350.51 579.23 348.49"/><path class="cls-25" d="M603.93,316.22a6.82,6.82,0,0,1,5.23,2.65c4.39,5.42,3.84,9.36,3.84,9.78,0,.87-6.62,7.62-9.75,12.13l-10.06,20.5-14-12.79S602,334.35,603.93,316.22Z"/><path class="cls-25" d="M577.05,354.25l2.18-5.76s-1.42-10.07,2.93-22.86v-5.36s-5.09,1.61-7,3.09c0,0-7.94,8.7-8.37,16.53a111.62,111.62,0,0,1-1.88,14.71L571.5,348Z"/><path class="cls-25" d="M607.2,323.94s-17.58,25.77-27.37,41.76-9.07,77.07-9.07,77.07l9.07,119.36s56.27,5.42,80.23-20.2c.22-51.72-7.13-160.21-15-191C645,351,623.33,333.36,607.2,323.94Z"/><path class="cls-26" d="M644.87,350.82c-2.49,8.28-22,31.15-22,46.1.09,24.87,3.21,63.73,5.6,98.89,1.52,22.33-4,42.71-8.52,64.56,14.71-2.56,30.16-7.83,40.08-18.44.22-51.72-7.13-160.21-15-191Z"/><path class="cls-25" d="M558.34,326.36s9.54-8.41,21.49-10.42c0,0-27,44.13-29.86,65.61s-1.76,170.1-1.76,170.1-14.33-11.32-20.51-26.12c0,0,7.54-110.39,10-135S551.46,356.3,553.76,345,558.34,326.36,558.34,326.36Z"/><path class="cls-5" d="M572.37,313l-11.26,10.92-5.05,19,2.08,6.78-7,2.55s-12.31,41.18-2.95,105.88c0,0-1.19-61.51,9.93-96.62,8.58-27.11,25.37-50.49,25.37-50.49Z"/><path class="cls-5" d="M653.31,504.7c0,10.51-1.57,10.71-4,20.61-2.71,0-10-4-13.3-13.95-2.3-6.87-3.71-18.68,1.63-20.31C642.37,489.6,653.31,494.2,653.31,504.7Z"/><path class="cls-21" d="M639,490.25c-3.51,2.12-7.19,3.37-10.52,5.56s-4.37,4.11-6.3,8.24-5.79,10-10.15,13.2,3.84,4.31,6.15,2.9,5.48-9.2,8.91-6.76-.71,12.93-2.8,15.15-7.7,5.45-6,8.05,4,.8,8.12-1.49,12.86-8.34,15.27-14.85S646.94,505,648.57,499,642.27,492.26,639,490.25Z"/><path class="cls-25" d="M663.48,384.62c-5.76-24.4-11.7-36.4-30.15-33.4-12.31,2-20,16.52-15.4,33.4,7.22,21,19.45,37.3,27.5,51.59.49,10.86-8.38,45.1-7.33,54.54,10.69,1.71,15,17.77,11.18,34.56C665.49,489.73,682,461.25,682,435.83,682,423.44,672.82,410.63,663.48,384.62Z"/><path class="cls-26" d="M682,435.83c0-12.39-9.18-25.2-18.52-51.21-3.35-14.17-6.77-24.12-12.65-29.42,3,7.76,4.83,16.15,6.3,23.71,2.7,13.85,16.35,52.44,16.29,59.13-.08,9.1-8.4,21.61-10.95,30.28a260,260,0,0,1-13.05,35.16c1.64,6.17,1.67,13.9-.14,21.83C665.49,489.73,682,461.25,682,435.83Z"/><path class="cls-5" d="M603.77,318.05l-.08-5.16,7.47,3.47,2,10.07,4.77,4.34-17.24,25.81-13.24,4,3.07,9.87s-17.39,42-18.54,88.33c0,0-7.1-34.26,3.94-89.32C575.92,369.44,588.38,337.51,603.77,318.05Z"/><path class="cls-28" d="M574.4,319.89a5.13,5.13,0,0,1-3.62-2A46.69,46.69,0,0,1,565,307.48c-2.23-5.75-1.76-7.48-2.14-14.92-4-24,3.44-33.23,8.36-37.08,10.82-8.47,27.37-3.8,32.06.3a33.64,33.64,0,0,1,5.1,5.52c0,.16,0,.31,0,.48v36a56.73,56.73,0,0,1-6.22,8.67c-1.29,1.49-3.35,4.07-5.92,6.75a23.07,23.07,0,0,1-18.81,7Z"/><path class="cls-22" d="M570.27,247.05c13.08,3.62,23.56,1.56,35.86,6,10.33,3.76,10.72,13,5.94,33.3-3.33,14.17-5,18.45-9.33,17.76.4-2.73-3.74-10.49-3.9-10.42-1.58-7.72-3-15.75-17.34-19.59-8.28-2.18-18.39-.92-19.82,2.88C552.72,267,553.71,242.46,570.27,247.05Z"/><path class="cls-28" d="M595.3,293.91c-1.26,4.85,0,9.38,2.9,10.12s6.19-2.59,7.45-7.44,0-9.37-2.9-10.11S596.55,289.07,595.3,293.91Z"/><path class="cls-22" d="M593.83,277l.48,17.29a3.62,3.62,0,0,0,3.82,1.34c2.46-.64,3.62-14.93,3.62-14.93Z"/><path class="cls-22" d="M561.68,277s23,8.6,33.5,3c0,0,3-10.21-13.68-16.55S561.68,277,561.68,277Z"/><polygon class="cls-29" points="572.64 919.01 511.43 955.92 233.14 795.25 297.53 759.44 572.64 919.01"/><polygon class="cls-30" points="572.64 691 572.64 919.01 297.53 759.44 297.53 534.27 572.64 691"/><polygon class="cls-4" points="435.08 662.29 435.08 746.78 410.9 732.35 410.9 648.13 435.08 662.29"/><polygon class="cls-4" points="386.33 662.59 459.74 704.3 459.74 732.43 386.33 690.44 386.33 662.59"/><polygon class="cls-4" points="572.64 691 685.74 624.76 685.74 853.34 572.64 919.01 572.64 691"/><polygon class="cls-5" points="685.74 624.76 407.26 465.29 297.53 534.27 572.64 691 685.74 624.76"/><polygon class="cls-6" points="502.25 601.99 476.41 619.16 445.42 603.04 445.42 601.27 470.03 583.17 502.25 601.99"/><polygon class="cls-31" points="502.25 600.21 476.41 617.38 445.42 601.27 470.03 581.39 502.25 600.21"/><polygon class="cls-6" points="418.82 463.64 542.49 535.68 542.49 634.36 418.82 561.91 418.82 463.64"/><polygon class="cls-32" points="418.82 463.64 425.22 460.75 546.65 531.51 546.65 631.03 542.49 634.36 542.49 535.68 418.82 463.64"/><path class="cls-31" d="M456.23,554.29l-9,45.84,31,16.11,10.84-49.47a7.63,7.63,0,0,0-3.92-8.39L467.26,549A7.64,7.64,0,0,0,456.23,554.29Z"/><path class="cls-7" d="M454.41,555.44l-9,45.83,31,16.11,10.83-49.47a7.62,7.62,0,0,0-3.91-8.39l-17.89-9.37A7.63,7.63,0,0,0,454.41,555.44Z"/><polygon class="cls-10" points="342.93 473.74 380.64 494.18 393.6 486.98 356.79 466.34 342.93 473.74"/><polygon class="cls-19" points="380.64 494.18 380.64 552.77 393.6 545.21 393.6 486.98 380.64 494.18"/><polygon class="cls-6" points="393.6 497.07 393.6 518.9 380.64 526.1 380.64 504.27 393.6 497.07"/><polygon class="cls-19" points="342.93 473.74 380.64 494.18 380.64 552.77 342.93 531.35 342.93 473.74"/><polygon class="cls-7" points="380.64 504.28 380.64 526.08 342.93 505.64 342.93 483.84 380.64 504.28"/><path class="cls-14" d="M610.94,633.48c7.5,4.33,19.65,4.33,27.15,0s7.49-11.34,0-15.67-19.65-4.33-27.15,0S603.44,629.15,610.94,633.48Z"/><path class="cls-9" d="M639,575.33c-2.23-3.27-6.47-7.16-14.46-7.16s-12.21,3.9-14.46,7.16c-1.21,1.75-4.73,5.85-4.73,8.5v41.81c0,2.84,1.87,5.68,5.62,7.84,7.5,4.33,19.65,4.33,27.15,0,3.75-2.16,5.62-5,5.62-7.84V583.83C643.71,581.18,640,576.88,639,575.33Z"/><path class="cls-6" d="M638.09,622.4c-7.5,4.33-19.65,4.33-27.15,0-3.75-2.17-5.62-5-5.62-7.84h0V588.41h0c.24,2.64,2.08,5.24,5.57,7.26,7.5,4.33,19.65,4.33,27.15,0,3.48-2,5.32-4.6,5.57-7.23h.05v26.12C643.71,617.4,641.83,620.23,638.09,622.4Z"/><path class="cls-11" d="M615.17,573.93c5.16,3,13.53,3,18.68,0s5.16-7.8,0-10.78-13.52-3-18.68,0S610,571,615.17,573.93Z"/><rect class="cls-11" x="611.3" y="561.37" width="26.42" height="7.17" transform="translate(1249.03 1129.91) rotate(180)"/><path class="cls-12" d="M615.17,566.76c5.16,3,13.53,3,18.68,0s5.16-7.8,0-10.78-13.52-3-18.68,0S610,563.78,615.17,566.76Z"/><path class="cls-13" d="M619.56,563.77a10.93,10.93,0,0,0,9.9,0c2.74-1.58,2.74-4.14,0-5.71a10.93,10.93,0,0,0-9.9,0C616.83,559.63,616.83,562.19,619.56,563.77Z"/><path class="cls-5" d="M569.15,655.32c5.37,3.11,14.09,3.11,19.47,0s5.37-8.14,0-11.24-14.1-3.1-19.47,0S563.77,652.22,569.15,655.32Z"/><path class="cls-4" d="M588.62,647.37c-5.38,3.11-14.1,3.11-19.47,0-2.69-1.55-4-3.58-4-5.62h0V623h0c.17,1.89,1.49,3.76,4,5.21,5.37,3.1,14.09,3.1,19.47,0,2.5-1.45,3.82-3.31,4-5.19h0v18.74C592.65,643.79,591.3,645.82,588.62,647.37Z"/><path class="cls-15" d="M588.62,614.09c-5.38-3.1-14.1-3.1-19.47,0-2.69,1.56-4,3.59-4,5.62h0v30c0,2,1.35,4.07,4,5.62,5.37,3.11,14.09,3.11,19.47,0,2.69-1.55,4-3.58,4-5.62v-30C592.65,617.68,591.31,615.65,588.62,614.09Z"/><path class="cls-11" d="M571.32,616.48a16.73,16.73,0,0,0,15.13,0c4.18-2.41,4.18-6.32,0-8.74a16.73,16.73,0,0,0-15.13,0C567.14,610.16,567.14,614.07,571.32,616.48Z"/><rect class="cls-11" x="568.18" y="606.3" width="21.4" height="5.81" transform="translate(1157.76 1218.42) rotate(180)"/><path class="cls-12" d="M571.32,610.67a16.73,16.73,0,0,0,15.13,0c4.18-2.41,4.18-6.32,0-8.73a16.67,16.67,0,0,0-15.13,0C567.14,604.35,567.14,608.26,571.32,610.67Z"/><ellipse class="cls-13" cx="578.88" cy="605.93" rx="5.67" ry="3.27"/><ellipse class="cls-33" cx="310.23" cy="910.76" rx="52.08" ry="82.38" transform="translate(-651.01 952.62) rotate(-73.68)"/><path class="cls-34" d="M304.29,550c-3.53,1.77-5.89,4.22-5.24,5.49s1.11,3.85,4.65,2.08,8.74-7.19,8.11-8.45S307.83,548.3,304.29,550Z"/><path class="cls-35" d="M315.82,874.74c-6.52-1.85-14.64,2.7-14.64,2.7s-17.45,7.32-18.13,9.08c1.06,14.34-1.9,24.65-.05,28.16s9.69,6.25,13.18,1.76c4-5.18,6.24-12.93,9.41-16.32s13.69-17.57,13.69-17.57S322.33,876.59,315.82,874.74Z"/><path class="cls-28" d="M260.68,672.13c-4.05,48.87,25.44,91.25,17.48,123.39-10.74,43.36,4.29,57.56,4.89,91,.18,10,17.34,8.56,17.34.08,0-33.56,6.75-41,7.12-83.22,1.88-20.4.84-52.4,12.49-99C319.73,696,264,669.3,260.68,672.13Z"/><path class="cls-21" d="M295.59,883.61c-5.36-16.29-6.28-34.29-6.74-51.31a626.74,626.74,0,0,1,1.95-63.39c2-26.66,4.18-53.94,9-80.4-16.41-9.2-37.15-18.07-39.11-16.38-4.05,48.87,25.44,91.25,17.48,123.39-10.74,43.36,4.29,57.56,4.89,91,.14,8,11,8.65,15.43,4.37A62.25,62.25,0,0,1,295.59,883.61Z"/><path class="cls-35" d="M334.18,892.45c-4.34-1-11,.37-15.68,1.58a7.26,7.26,0,0,0-5.37,7c0,6.16.5,15.49,3.27,17,4.16,2.36,39-2.91,49.51-6s9-12.58,5.31-15.6S350.45,896.25,334.18,892.45Z"/><path class="cls-28" d="M351.42,657.55c-19.14.72-45.49-8.25-45.49-8.25l-30.07-13.69s-15.45,24.82-15.45,40.26c0,23.19,40.49,35.13,40.49,35.13s13.56,85.94,12.73,91.72c-13.67,38.6-.37,60,1.47,92a8.58,8.58,0,0,0,8.64,8.26c9.16.15,9.56-6.44,9.56-6.44s-2.12-35.61,13.41-96.52C350.33,784.67,356.12,685.73,351.42,657.55Z"/><path class="cls-21" d="M322.3,897.44c-1.89-5.13-1-11-.55-16.23a149.55,149.55,0,0,0,0-17.33c-.54-14-1.25-28-.62-42,.55-12.44,2.5-24.74,4.17-37.07,1.34-9.88,3-19.55,7.31-28.61,4.05-8.58,10.77-23.19,19.93-30.37,1-27.72,1.07-55.4-1.08-68.28-19.14.72-45.49-8.25-45.49-8.25l-30.07-13.69s-15.45,24.82-15.45,40.26c0,23.19,40.49,35.13,40.49,35.13s13.56,85.94,12.73,91.72c-13.67,38.6-.37,60,1.47,92a8.58,8.58,0,0,0,8.64,8.26,18.7,18.7,0,0,0,1.89-.08A16.77,16.77,0,0,1,322.3,897.44Z"/><path class="cls-28" d="M296.17,543.07c-2.89,3.1-7.44,12.88-7.44,12.88s11.85,10.77,14.21,10.36,7.16-13.53,7.16-13.53,11.6-11.29,6.91-15.73S299.08,540,296.17,543.07Z"/><path class="cls-24" d="M278.38,548.8C274.85,536.05,267,521.93,254.81,528c-9.06,4.52-10.82,20.51-3.92,31.64s14.93,24.7,18.89,31.38,22.93-7.29,19.89-13.71A158.59,158.59,0,0,1,278.38,548.8Z"/><path class="cls-23" d="M351.42,657.55l-1.36-15.73c-.27-8.38-6.77-41-5-46,0,0,11.11-4.94,8.68-17.12-2.8-14.3-34.82-26.28-34.82-26.28l-18-7-31.4-13.29a15,15,0,0,0-20.33,9.92,51.26,51.26,0,0,0-1.43,13.62c.48,20.85,31.9,70.83,31.9,70.83l-3.79,9.08s-31,18.49-15.56,95.08c0,0,42.36,54.24,93.77,11.11C354.07,741.8,366.13,686.11,351.42,657.55Z"/><path class="cls-24" d="M285.24,749.36A74.59,74.59,0,0,1,279.59,731c-2.53-13.59-2.83-27.57-2.7-41.35.11-12.7,3.7-24,8.71-35.51,5.84-13.48,12.17-27.5,9.3-42.58-4.49-23.57-29.79-37.81-26-63.87a42.25,42.25,0,0,1,4.62-13.84l-4-1.7a15,15,0,0,0-20.33,9.92,51.26,51.26,0,0,0-1.43,13.62c.48,20.85,31.9,70.83,31.9,70.83l-3.79,9.08s-31,18.49-15.56,95.08a86.08,86.08,0,0,0,26.13,21C286,750.92,285.62,750.15,285.24,749.36Z"/><path class="cls-28" d="M292.83,528.83s14.11,1.24,19,2.51,8.5-3.91,14.7-19.3c2.31-5.72,3.48-13,4.16-20.38,2-22.16-6.37-28.54-27.29-21.91C280.28,477.08,292.83,528.83,292.83,528.83Z"/><path class="cls-21" d="M316.48,530.08a5,5,0,0,1-4.62,1.26c-4.92-1.27-19-2.51-19-2.51s-.79-3.29-1.62-8.33A28,28,0,0,1,316.48,530.08Z"/><path class="cls-21" d="M274.66,542.37s5.15-19.09,6.25-29l20,3.36s2.84,27.18,2.84,36.59S268.38,561.06,274.66,542.37Z"/><path class="cls-22" d="M332.43,472.67c-1.38-12.91-9.53-22.41-28.68-20.59-29.29-6.22-33.24,10.51-35.48,37-.82,9.8-11,13.7-10.7,29.44.09,4.75,7.2,11.17,14.82,14.87.95-.87,4-7.2,4-7.2v8.56a44.31,44.31,0,0,0,20.83,1.4v-5.79l3,5.32C313,533.52,335.24,498.72,332.43,472.67Z"/><path class="cls-28" d="M328.93,564.17c13.15-2.52,15.9,13,16.74,25.93.83,12.76,4.48,40.22,7.64,66.2,2.63,5.05,24.37,51.62,28.63,55.89.69-.08,5.35,1.26,9.1,2.08s9.83,10.07,10.84,12.36c.38.87.06,2.62-3.34,1.67-2.83-.8-5.86-5.52-6.43-4.23-1,2.27,1.86,8.16,1.86,8.16s6.25,9.25,5.43,11.91-4.76,3.39-11.2,2c-2.64-.58-5.57-5.75-8-10.15-3.47-6.34-7.41-16-7.41-16s-32.8-46.27-36.91-53.15c-3.59-6-15.54-61.44-19.11-73.81S319.15,566,328.93,564.17Z"/><path class="cls-21" d="M328.93,564.17c13.15-2.52,15.9,13,16.74,25.93.47,7.23,1.85,15.18,3.53,25.44-5.12,7.75-8.16,28.94-7.6,38.25.95,15.9,13,29.81,19.28,44,1.8,4.09,3.45,8.24,5,12.42-9.85-14-27.08-38.5-30-43.36-3.59-6-15.54-61.44-19.11-73.81S319.15,566,328.93,564.17Z"/><path class="cls-23" d="M320.47,629c-2.57-8.6-6.62-28.83-6.41-40.13.24-12.89,1.22-25.43,10.59-28.75,26.94-9.55,32.74,32.73,31.42,61.38C354.39,627.3,335.38,632.1,320.47,629Z"/><polygon class="cls-36" points="872.52 887.98 818.81 917.91 768.29 895.29 825.58 863.36 872.52 887.98"/><path class="cls-17" d="M815.67,796.77l-.12,68c0,15.65,16,28.39,35.85,28.47s35.92-12.56,35.94-28.21l.12-68Z"/><path class="cls-6" d="M835.61,796.85l-19.94-.08-.12,68c0,11.17,8.18,20.83,20.06,25.49Z"/><path class="cls-7" d="M887.46,797c0,15.65-16.12,28.27-35.94,28.2s-35.88-12.82-35.85-28.47,16.12-28.27,36-28.2S887.49,781.39,887.46,797Z"/><path class="cls-6" d="M880.32,796.66c0,12.24-12.91,22.11-28.79,22.05s-28.73-10-28.71-22.26,12.91-22.12,28.79-22.06S880.34,784.42,880.32,796.66Z"/><path class="cls-19" d="M851.58,788.89c12.58.05,23.23,6.33,27.12,15-3.92,8.66-14.59,14.86-27.17,14.81s-23.23-6.32-27.12-15C828.33,795.05,839,788.85,851.58,788.89Z"/><g class="cls-37"><path class="cls-4" d="M841,823.09c-.35-.44-17.14-57.57,0-94.75s44.55-38.26,53.26-31.15,6.75,13.65-8.64,35.13c-14,19.5-30.62,45.57-27.93,86.3Z"/><path class="cls-38" d="M848.35,822.28l-.16.05a1.13,1.13,0,0,1-1.35-.86c-14.21-64.69,16.27-111.8,35-121.55a1.11,1.11,0,0,1,1.52.48,1.13,1.13,0,0,1-.48,1.53c-18.16,9.48-47.74,55.54-33.79,119.05A1.11,1.11,0,0,1,848.35,822.28Z"/><path class="cls-4" d="M852.89,820.45c.1-.55-11.65-58.92-44.1-83.86s-57.24-13.09-61.64-2.75.39,15.22,24,27.06c21.45,10.74,48.32,26.05,64.91,63.35Z"/><path class="cls-38" d="M846,823.17l.17,0a1.13,1.13,0,0,0,.79-1.39c-17.56-63.86-66.48-91.34-87.56-91.26a1.11,1.11,0,0,0-1.13,1.13,1.12,1.12,0,0,0,1.14,1.13c20.49-.07,68.12,26.91,85.36,89.6A1.15,1.15,0,0,0,846,823.17Z"/><path class="cls-4" d="M843.76,824.63c-.15-.54,6-59.76,36-87.67s55.74-18.46,61.1-8.58,1.06,15.19-21.34,29.22c-20.33,12.72-45.63,30.51-58.61,69.22Z"/><path class="cls-38" d="M850.88,826.68h-.17a1.15,1.15,0,0,1-.92-1.32c11.43-65.24,57.52-97.24,78.51-99.16a1.12,1.12,0,0,1,1.23,1,1.14,1.14,0,0,1-1,1.23c-20.4,1.87-65.26,33.25-76.47,97.29A1.13,1.13,0,0,1,850.88,826.68Z"/></g></svg>